<?xml version="1.0" encoding="UTF-8"?>
<svg width="78px" height="63px" viewBox="0 0 78 63" version="1.1" xmlns="http://www.w3.org/2000/svg" xmlns:xlink="http://www.w3.org/1999/xlink">
    <!-- Generator: Sketch 64 (93537) - https://sketch.com -->
    <title>beaute</title>
    <desc>Created with Sketch.</desc>
    <g id="Activités" stroke="none" stroke-width="1" fill="none" fill-rule="evenodd">
        <g id="1.1-Activités" transform="translate(-926.000000, -4340.000000)">
            <g id="Section" transform="translate(228.000000, 4225.000000)">
                <g id="Item" transform="translate(647.000000, 89.000000)">
                    <g id="beaute" transform="translate(51.000000, 26.500000)">
                        <path d="M53.7573087,13.4808255 C56.9082711,15.0829943 60.0247968,17.0024242 65.052562,20.1750357 C70.0803273,23.3317841 76.9848952,27.7575771 77.8974691,32.3102745 C78.7928245,36.8788351 73.6617491,41.6060261 68.8406043,46.3649433 C64.0194596,51.1079975 59.4910272,55.8986408 53.4818147,58.8015803 C47.4726022,61.7045198 39.9653911,62.7197555 32.6648005,61.482437 C25.3642099,60.2451185 18.2530214,56.771109 12.8808887,51.5997523 C7.50875603,46.4283956 3.87567911,39.5755548 1.72338235,31.9612873 C-0.411696026,24.3470198 -1.04877586,15.9713255 2.67039293,9.81645923 C6.37234334,3.66159299 14.4477608,-0.256582177 22.0927188,0.0130897979 C29.7376769,0.29862483 36.969394,4.80373311 42.1865613,7.69080955 C47.4037287,10.577886 50.5891279,11.8627936 53.7573087,13.4808255 Z" id="ecran_1_forme_1" fill="#FFF7EA"></path>
                        <g id="nail" transform="translate(9.000000, 0.500000)" fill="#000000" fill-rule="nonzero">
                            <path d="M42.4816546,30.0366288 C42.3555372,29.0334456 41.7936133,28.6046062 41.344175,28.4215392 C40.6576483,28.1416374 39.3815306,28.007846 36.1872982,29.8945575 C36.4778023,28.6908386 36.3633981,27.3951318 35.8039984,26.2318027 C36.9051271,24.8572347 38.1610499,22.9675949 37.9856569,21.564653 C37.8587318,20.5493528 37.2916581,20.1165754 36.8380799,19.9322967 C34.2508062,18.8803427 28.3741821,23.6016148 26.1880807,25.3491832 C26.2597727,24.5927821 26.1594039,23.8170947 25.8740495,23.0846246 C26.9477131,21.7708433 28.2578593,19.8731255 28.0829712,18.4737177 C27.9542285,17.4435743 27.3327294,17.0450273 26.9736635,16.8990179 C25.5108437,16.3042772 23.138848,17.6128078 21.4821567,18.6488078 C18.9850534,20.2101789 19.0496772,20.2764183 1.8269345,34.096315 C0.665927875,35.0281092 0,36.4164097 0,37.9050791 C0,39.5389501 0,47.0372273 0,48.6970487 C0,50.3523263 1.34669903,51.6990253 3.00197661,51.6990253 L4.62463938,51.6990253 C5.04297739,51.6990253 5.38194932,51.3600534 5.38194932,50.9417154 C5.38194932,50.5233774 5.04297739,50.1844055 4.62463938,50.1844055 L3.00197661,50.1844055 C2.1819614,50.1844055 1.51472086,49.5172659 1.51472086,48.6971497 L1.51472086,47.0907439 L22.6478082,30.1330596 C23.2974791,33.7832936 27.3812982,33.9555563 29.7187606,32.2420164 C31.1855185,31.1654246 33.3184062,29.0583864 34.6851992,27.5406363 C35.100508,29.0363739 34.6069439,30.6911466 33.3439528,31.7045283 C33.3303212,31.7154335 30.1887977,34.2360639 10.308099,50.1844055 L8.15895439,50.1844055 C7.74061637,50.1844055 7.40164444,50.5233774 7.40164444,50.9417154 C7.40164444,51.3600534 7.74061637,51.6990253 8.15895439,51.6990253 C11.6622702,51.6990253 20.704248,51.6990253 24.2073618,51.6990253 C25.6082842,51.6990253 26.9816405,51.2161645 28.0742873,50.3393006 L33.3877758,46.0754437 C33.713924,45.8136164 33.7662288,45.337016 33.5044016,45.0106659 C33.2425743,44.6845177 32.7659739,44.6323138 32.4396238,44.8940402 L27.1262363,49.1578971 C26.3013743,49.819786 25.2646674,50.1843045 24.2072608,50.1843045 L12.7344191,50.1843045 L27.278607,38.5136534 C27.4117926,39.236531 27.6557474,39.7828039 27.9287828,40.1704456 C29.067878,41.7916947 31.7351236,41.9992986 33.6571762,40.9669337 C34.817375,40.3431123 37.0027696,38.2295107 37.9158834,37.3046838 C38.3428043,38.8508078 37.8289442,40.5696994 36.5319248,41.6104452 L35.196232,42.6822912 C34.8700838,42.9441185 34.8178799,43.4207189 35.0796062,43.747069 C35.3413326,44.0731162 35.8179329,44.1253201 36.144384,43.8636947 L37.4799758,42.7918487 C39.487453,41.181 40.1230885,38.3824873 39.076991,36.080669 C39.9930331,35.0732448 42.734899,32.0510733 42.4816546,30.0366288 Z M22.2958105,19.9265411 C25.3361575,18.0272078 26.2509879,18.2401634 26.4033587,18.3023637 C26.4448593,18.3192265 26.5419969,18.3587076 26.5798624,18.6617326 C26.8218986,20.5959021 20.8375345,26.4026519 19.2029567,27.4840904 C17.8050635,28.3868039 15.998122,28.1543602 15.4127719,27.3594877 C14.9858511,26.7801961 14.978278,25.9230222 14.942432,25.5142768 C18.1333322,22.9589111 19.9060433,21.4193505 22.2958105,19.9265411 Z M22.8415786,28.0346043 C21.5731349,29.0506113 2.72177193,44.149352 1.51472086,45.1160834 L1.51472086,37.9050791 C1.51472086,36.8780659 1.97405458,35.9206242 2.77498558,35.2778195 L13.535552,26.6432745 C13.8167665,28.1158889 14.5457025,28.8871333 15.6176495,29.3026441 C16.6167938,29.6898819 17.8571665,29.717448 19.0353388,29.2657883 C20.6679981,28.6395435 23.5016499,25.7396522 24.6720472,24.4623228 C24.9591181,26.8151333 23.007177,27.8315442 22.8415786,28.0346043 Z M28.8342226,31.012246 C27.2958737,32.1457875 25.1157298,31.940506 24.4779739,30.8610869 C24.1736363,30.3463181 24.0681177,29.5931481 24.0626651,28.9977006 C27.3205115,26.3761965 29.346871,24.6392304 31.8742667,23.0602897 C35.1149474,21.0357478 36.1025805,21.2684943 36.267876,21.3355415 C36.3235131,21.3581598 36.43923,21.405315 36.4826491,21.7524659 C36.7439715,23.8429442 30.5711887,29.7356234 28.8342226,31.012246 Z M33.2112721,39.4716 C31.9554503,40.2790943 29.8196343,40.3695676 29.1098834,39.2095708 C28.7866635,38.6769294 28.6988156,37.8873076 28.6902327,37.3808187 C32.7768791,34.1160051 34.0110924,33.02043 36.4251945,31.5210573 C39.6343712,29.5278175 40.6097864,29.7576359 40.7727595,29.8241782 C40.8259731,29.8458877 40.9369442,29.8911244 40.9789497,30.2255524 C41.240777,32.3109821 34.8074795,38.4376195 33.2112721,39.4716 Z" id="Shape"></path>
                            <path d="M50.9417154,4.0846269 C51.3600534,4.0846269 51.6991263,3.74565497 51.6991263,3.32731696 L51.6991263,2.03514425 C51.6991263,0.913012865 50.7860125,0 49.6638811,0 L42.6344292,0 C41.5121969,0 40.599285,0.913012865 40.599285,2.03514425 L40.599285,6.84577895 C40.599285,7.86107914 41.2811669,8.76449942 42.2574908,9.04288655 L43.8478417,9.49636374 L43.8478417,15.7653754 C43.8478417,16.225315 43.990317,16.6525388 44.23306,17.0056472 C44.1293591,18.7829021 43.5810667,22.5394624 40.8846394,24.7900865 C40.1498468,25.4032047 40.1589345,26.5393715 40.9004924,27.1503692 C42.2033684,28.1101333 42.619384,28.8835992 43.7018324,28.8835992 C44.4351103,28.8835992 45.1113376,28.4793977 45.4476842,27.8096327 C46.257299,26.1966635 47.6151053,22.6886019 47.7303173,17.1671057 C48.0468729,16.7866331 48.237614,16.2978148 48.237614,15.7653754 L48.237614,10.7481466 C48.5893088,10.7735922 49.7265864,11.4934405 50.8670951,10.6328335 C51.3957984,10.2338827 51.6991263,9.62500546 51.6991263,8.9626117 L51.6991263,6.86163197 C51.6991263,6.44339493 51.3601544,6.10432203 50.9418164,6.10432203 C50.5234784,6.10432203 50.1845064,6.44329396 50.1845064,6.86163197 L50.1845064,8.9626117 C50.1845064,9.14557778 50.1007984,9.31370058 49.9547891,9.42376296 C49.5697727,9.71467096 49.2993626,9.40962651 47.6882109,9.01622924 C46.7063333,8.73622651 43.6772955,7.87248928 42.6730016,7.58612515 C42.3439251,7.49231969 42.1142078,7.18788109 42.1142078,6.84577895 L42.1142078,2.03514425 C42.1142078,1.75302105 42.352508,1.51472086 42.6346312,1.51472086 L49.664083,1.51472086 C49.9462062,1.51472086 50.1845064,1.75302105 50.1845064,2.03514425 L50.1845064,3.32731696 C50.1843045,3.74565497 50.5232764,4.0846269 50.9417154,4.0846269 Z M44.093816,27.1300733 C43.9687084,27.3789758 43.6427622,27.4470327 43.4253637,27.2678027 L41.8633867,25.9811836 C41.8491493,25.9694706 41.8541981,25.9534156 41.8550058,25.9529107 C44.1995365,23.9961228 45.3446901,20.9656713 45.6753821,17.9300702 C45.8442117,17.9582421 46.0229368,17.966623 46.189747,17.9554148 C45.9749739,22.704455 44.8058893,25.7116823 44.093816,27.1300733 Z M45.3622596,9.92833333 L46.7227922,10.316278 L46.7227922,15.7653754 C46.7227922,15.970152 46.6314101,16.153724 46.4877232,16.2784277 C46.0364674,16.6624343 45.3622596,16.3391135 45.3622596,15.7653754 L45.3622596,9.92833333 Z" id="Shape"></path>
                        </g>
                    </g>
                </g>
            </g>
        </g>
    </g>
</svg>