<?xml version="1.0" encoding="UTF-8"?>
<svg width="78px" height="63px" viewBox="0 0 78 63" version="1.1" xmlns="http://www.w3.org/2000/svg" xmlns:xlink="http://www.w3.org/1999/xlink">
    <!-- Generator: Sketch 64 (93537) - https://sketch.com -->
    <title>icon3</title>
    <desc>Created with Sketch.</desc>
    <g id="Concept" stroke="none" stroke-width="1" fill="none" fill-rule="evenodd">
        <g id="1.1-Concept" transform="translate(-258.000000, -4528.000000)">
            <g id="Section-5" transform="translate(0.000000, 4254.000000)">
                <g id="bandeau-footer" transform="translate(135.000000, 248.000000)">
                    <g id="boutique">
                        <g id="Group-3" transform="translate(75.000000, 0.000000)">
                            <g id="icon3" transform="translate(29.000000, 0.000000)">
                                <g transform="translate(19.000000, 26.500000)">
                                    <path d="M53.7573087,13.4808255 C56.9082711,15.0829943 60.0247968,17.0024242 65.052562,20.1750357 C70.0803273,23.3317841 76.9848952,27.7575771 77.8974691,32.3102745 C78.7928245,36.8788351 73.6617491,41.6060261 68.8406043,46.3649433 C64.0194596,51.1079975 59.4910272,55.8986408 53.4818147,58.8015803 C47.4726022,61.7045198 39.9653911,62.7197555 32.6648005,61.482437 C25.3642099,60.2451185 18.2530214,56.771109 12.8808887,51.5997523 C7.50875603,46.4283956 3.87567911,39.5755548 1.72338235,31.9612873 C-0.411696026,24.3470198 -1.04877586,15.9713255 2.67039293,9.81645923 C6.37234334,3.66159299 14.4477608,-0.256582177 22.0927188,0.0130897979 C29.7376769,0.29862483 36.969394,4.80373311 42.1865613,7.69080955 C47.4037287,10.577886 50.5891279,11.8627936 53.7573087,13.4808255 Z" id="ecran_1_forme_1" fill="#FFF7EA"></path>
                                    <g id="noun_Pin_3025091" transform="translate(19.000000, 7.500000)" fill="#000000" fill-rule="nonzero">
                                        <g id="Group" transform="translate(0.082500, 0.000000)">
                                            <path d="M17.1765,44.4708 L16.08255,43.2729 C16.05285,43.23825 12.8403,39.7287 9.4149,35.5113 C4.7421,29.7594 1.9008,25.46775 0.9603,22.7601 C0.3366,20.9583 0.02475,19.07235 0.02475,17.15175 C0.02475,14.83515 0.48015,12.58785 1.37115,10.4742 C2.2374,8.42985 3.46995,6.59835 5.049,5.02425 C6.6231,3.45015 8.45955,2.21265 10.49895,1.3464 C12.6126,0.4554 14.8599,0 17.1765,0 C19.4931,0 21.7404,0.4554 23.85405,1.3464 C25.8984,2.21265 27.7299,3.4452 29.304,5.02425 C30.8781,6.59835 32.1156,8.4348 32.98185,10.4742 C33.8778,12.58785 34.32825,14.83515 34.32825,17.15175 C34.32825,19.0674 34.0164,20.9484 33.3927,22.74525 C32.45715,25.45785 29.6109,29.7495 24.9381,35.50635 C21.5127,39.72375 18.30015,43.23825 18.2655,43.2729 L17.1765,44.4708 Z M17.1765,2.97 C9.3555,2.97 2.99475,9.33075 2.99475,17.15175 C2.99475,18.7407 3.2571,20.29995 3.76695,21.7899 C4.33125,23.42835 6.1677,26.8092 11.70675,33.6303 C13.87485,36.3033 15.9588,38.68425 17.17155,40.0554 C18.38925,38.68425 20.4732,36.3033 22.6413,33.6303 C28.19025,26.80425 30.02175,23.41845 30.591,21.78 C31.10085,20.295 31.3632,18.7407 31.3632,17.15175 C31.35825,9.33075 24.9975,2.97 17.1765,2.97 Z" id="Shape"></path>
                                            <path d="M17.1765,22.52745 C14.21145,22.52745 11.8008,20.1168 11.8008,17.15175 C11.8008,14.1867 14.21145,11.77605 17.1765,11.77605 C20.14155,11.77605 22.5522,14.1867 22.5522,17.15175 C22.5522,20.1168 20.14155,22.52745 17.1765,22.52745 Z M17.1765,14.74605 C15.8499,14.74605 14.7708,15.82515 14.7708,17.15175 C14.7708,18.47835 15.8499,19.55745 17.1765,19.55745 C18.5031,19.55745 19.5822,18.47835 19.5822,17.15175 C19.5822,15.82515 18.5031,14.74605 17.1765,14.74605 Z" id="Shape"></path>
                                        </g>
                                    </g>
                                </g>
                            </g>
                        </g>
                    </g>
                </g>
            </g>
        </g>
    </g>
</svg>