<svg xmlns="http://www.w3.org/2000/svg" width="78" height="66.5" viewBox="0 0 78 66.5">
  <g id="Icons_Circle_gateau" data-name="Icons/Circle/gateau" transform="translate(-19 -22)">
    <path id="ecran_1_forme_1" d="M53.757,13.481c3.151,1.6,6.267,3.522,11.3,6.694C70.08,23.332,76.985,27.758,77.9,32.31c.9,4.569-4.236,9.3-9.057,14.055C64.019,51.108,59.491,55.9,53.482,58.8a35.157,35.157,0,0,1-20.817,2.681A38.032,38.032,0,0,1,12.881,51.6C7.509,46.428,3.876,39.576,1.723,31.961c-2.135-7.614-2.772-15.99.947-22.145C6.372,3.662,14.448-.257,22.093.013,29.738.3,36.969,4.8,42.187,7.691S50.589,11.863,53.757,13.481Z" transform="translate(19 26.5)" fill="#fff7ea"/>
    <g id="cake" transform="translate(26 22)">
      <path id="Shape" d="M51.343,51.025H7.857a.931.931,0,0,1-.633-.247L2.613,46.531a2.8,2.8,0,0,1,.192-5.6H6.454V28.841a3.768,3.768,0,0,1,3.764-3.764h1.513V13.213c0-.047,0-.1,0-.157,0-.017,0-.034,0-.051l0-.025c0-.027,0-.054.006-.08V12.89c0-.042.01-.089.018-.142,0-.007,0-.013,0-.02s0-.016,0-.024l.019-.105,0-.021,0-.021c.007-.036.015-.072.024-.107l.006-.02,0-.016c.007-.029.014-.056.023-.083l0-.009,0-.009c.018-.061.04-.125.067-.2l.014-.035.009-.022c.025-.061.052-.126.084-.19l.007-.014.007-.014c.03-.06.062-.118.1-.179l.008-.014.008-.014c.038-.063.08-.129.126-.194l.006-.008a3.086,3.086,0,0,1,2.258-1.3h.033c.082-.007.158-.01.233-.01h4.185V8.589a2.168,2.168,0,0,1,2.165-2.165h4.443V3.192A3.031,3.031,0,0,1,27.977.218,5.4,5.4,0,0,1,29.533,0a6.61,6.61,0,0,1,1.8.257c.021.005.041.013.062.02a3,3,0,0,1,2.186,2.915V6.424h4.443a2.167,2.167,0,0,1,2.164,2.164v1.533h4.185c.075,0,.153,0,.233.01l.033,0a3.084,3.084,0,0,1,2.26,1.3l0,.005c.049.07.091.134.128.2l.007.011.007.011c.041.071.073.13.1.186l.006.012.006.012c.033.068.061.132.086.194l0,.012c.006.014.011.027.016.041.024.062.046.127.068.2l0,.007,0,.007c.007.025.014.051.021.076l.005.019.007.025c.008.035.016.069.023.1l0,.007c0,.013.006.025.008.038s.009.047.013.07l.006.034v.006c0,.014,0,.026.006.039.006.04.011.078.015.118a3.187,3.187,0,0,1,.02.347v4.6a.935.935,0,1,1-1.869,0V16.588l-2.569,1.67a3.8,3.8,0,0,1-4.077.132l-.01-.006-.026-.017L36.182,16.59l-.01-.006a1.661,1.661,0,0,0-.923-.3,1.7,1.7,0,0,0-.814.221l-3,1.949-.037.022a3.585,3.585,0,0,1-1.472.476h-.014l-.115.009-.043,0h-.031l-.058,0h-.129l-.056,0h-.03l-.043,0-.119-.009h-.012A3.6,3.6,0,0,1,27.8,18.48l-.036-.022-3-1.949a1.7,1.7,0,0,0-.814-.221,1.661,1.661,0,0,0-.923.3l-2.746,1.784-.036.022a3.8,3.8,0,0,1-4.077-.132L13.6,16.588v8.489h32V20.849a.935.935,0,0,1,1.87,0v4.228h1.513a3.768,3.768,0,0,1,3.764,3.764v5.094a.935.935,0,1,1-1.87,0V32.292l-2.184,1.42a3.8,3.8,0,0,1-4.077.131l-.035-.021-2.747-1.785a1.668,1.668,0,0,0-.923-.3,1.7,1.7,0,0,0-.814.22l-3,1.95-.037.023a3.6,3.6,0,0,1-1.472.475h-.011c-.038,0-.076.007-.116.009h-.005l-.044,0-.084,0H35.2l-.086,0-.048,0-.083-.006-.034,0-.017,0a3.61,3.61,0,0,1-1.393-.434c-.088-.043-.171-.087-.247-.132l-.018-.011-.018-.011-2.741-1.781-.005,0a1.672,1.672,0,0,0-.911-.3h-.006a1.662,1.662,0,0,0-.9.3l-2.746,1.785-.018.011-.018.011c-.077.046-.161.09-.247.132a3.6,3.6,0,0,1-1.4.434h-.012c-.038,0-.076.007-.114.009l-.044,0-.087,0h-.128l-.093,0-.041,0c-.042,0-.081-.005-.12-.009l-.021,0a3.555,3.555,0,0,1-1.461-.474l-.037-.023-3-1.949a1.683,1.683,0,0,0-.815-.221,1.664,1.664,0,0,0-.915.291l-.017.011,0,0-2.732,1.776-.018.011-.018.011a3.8,3.8,0,0,1-4.077-.131L8.323,32.293V40.93H50.876v-4a.935.935,0,1,1,1.87,0v4H56.4a2.8,2.8,0,0,1,.192,5.6l-4.612,4.247A.931.931,0,0,1,51.343,51.025ZM5.38,46.538h0l2.842,2.617H50.978l2.842-2.617H39.01a.935.935,0,0,1,0-1.869H56.4a.935.935,0,1,0,0-1.869H2.8a.935.935,0,1,0,0,1.869H35.77a.935.935,0,1,1,0,1.869H5.38Zm24.2-16.666h.046a3.538,3.538,0,0,1,1.9.593l.006,0,2.726,1.771c.046.026.085.046.121.063l.041.021.014.008a1.738,1.738,0,0,0,.673.215h.014l.027,0,.029,0h.02l.066,0,.067,0h.034l.043,0h.012a1.759,1.759,0,0,0,.68-.217l3-1.949.034-.021a3.463,3.463,0,0,1,3.721.109l2.726,1.771a2,2,0,0,0,.973.263,2.051,2.051,0,0,0,1.122-.36l3.2-2.082V28.841a1.9,1.9,0,0,0-1.894-1.894H10.218a1.9,1.9,0,0,0-1.895,1.894v1.221l3.2,2.082a2.051,2.051,0,0,0,1.122.36,2,2,0,0,0,.973-.263l2.726-1.771.007,0a3.517,3.517,0,0,1,1.935-.594,3.565,3.565,0,0,1,1.779.49l.034.021,3,1.949a1.764,1.764,0,0,0,.68.217H23.8l.028,0,.027,0h.02l.067,0,.066,0h.013l.024,0,.04,0h.013a1.737,1.737,0,0,0,.674-.215l.014-.008.041-.021c.037-.017.075-.037.122-.063l2.726-1.771A3.531,3.531,0,0,1,29.58,29.872ZM23.952,14.417a3.565,3.565,0,0,1,1.779.49l.034.021,3,1.949a1.764,1.764,0,0,0,.679.217h.009l.058,0h.016l.073,0,.09,0,.056,0h.01a1.747,1.747,0,0,0,.679-.217l3-1.949.021-.013.014-.008a3.565,3.565,0,0,1,1.779-.49,3.518,3.518,0,0,1,1.931.591l.005,0,.006,0,2.726,1.771a2,2,0,0,0,.973.263,2.056,2.056,0,0,0,1.123-.359L45.6,14.359V13.213a1.188,1.188,0,0,0-.006-.125c-.005-.048-.011-.085-.018-.12l0-.011c-.009-.04-.018-.074-.028-.105v-.01c-.011-.032-.023-.065-.035-.1a.227.227,0,0,1-.01-.022c-.012-.028-.025-.054-.039-.079l-.007-.013-.007-.013c-.014-.023-.028-.047-.042-.07l-.007-.01-.011-.016c-.015-.023-.031-.044-.048-.065l-.014-.017-.029-.034-.008-.009c-.011-.013-.022-.025-.035-.037s-.034-.034-.052-.05l-.022-.02c-.02-.017-.041-.033-.061-.049a.119.119,0,0,0-.017-.013c-.023-.018-.047-.034-.069-.048l-.006,0a1.27,1.27,0,0,0-.249-.119l-.005,0-.005,0c-.022-.008-.045-.014-.068-.021l-.041-.01-.058-.013L44.542,12h-.007L44.49,12c-.035,0-.074-.005-.112-.005H14.822c-.038,0-.074,0-.112.005L14.665,12l-.053.009H14.6l-.009,0-.049.01-.04.011-.069.02-.01,0a1.232,1.232,0,0,0-.248.119l-.009.005c-.023.014-.046.03-.068.046l-.01.008-.01.008a.727.727,0,0,0-.058.047L14,12.307,14,12.314l-.047.045c-.023.024-.047.049-.068.075l0,0-.008.01-.014.019c-.014.019-.029.038-.042.057l-.013.019c-.017.027-.033.053-.048.079a.189.189,0,0,1-.01.019c-.016.03-.03.06-.042.088l0,.007,0,.007a1.239,1.239,0,0,0-.069.223,1.265,1.265,0,0,0-.025.247v1.146l3.588,2.331a2.044,2.044,0,0,0,1.122.36,2,2,0,0,0,.973-.263l2.726-1.771A3.525,3.525,0,0,1,23.952,14.417ZM21.173,8.294a.3.3,0,0,0-.3.3v1.533H38.323V8.589a.3.3,0,0,0-.3-.3H21.173Zm8.359-6.424a3.509,3.509,0,0,0-1,.132c-.926.3-1.05.768-1.05,1.191V6.424h4.231V3.192c0-.417-.112-.845-.921-1.146A4.738,4.738,0,0,0,29.532,1.869Z" transform="translate(0 8.175)"/>
      <path id="Shape-2" data-name="Shape" d="M2.867,7.745A.952.952,0,0,1,2.5,7.668,4.134,4.134,0,0,1,2.5.077a.939.939,0,0,1,.742,0,4.134,4.134,0,0,1,0,7.591A.945.945,0,0,1,2.867,7.745ZM2.867,2a2.264,2.264,0,0,0,0,3.753A2.265,2.265,0,0,0,2.867,2Z" transform="translate(26.734 0)"/>
      <circle id="Oval" cx="1.214" cy="1.214" r="1.214" transform="translate(19.194 29.372)"/>
      <circle id="Oval-2" data-name="Oval" cx="1.214" cy="1.214" r="1.214" transform="translate(31.407 27.378)"/>
      <circle id="Oval-3" data-name="Oval" cx="1.214" cy="1.214" r="1.214" transform="translate(39.624 28.618)"/>
      <path id="Path" d="M2.224.089.538.881a.935.935,0,1,0,.795,1.692l1.686-.792A.935.935,0,1,0,2.224.089Z" transform="translate(34.279 30.095)"/>
      <path id="Path-2" data-name="Path" d="M1.422.137a.935.935,0,0,0-.974,1.6l1.59.971a.935.935,0,0,0,.974-1.6Z" transform="translate(23.593 28.313)"/>
      <circle id="Oval-4" data-name="Oval" cx="1.214" cy="1.214" r="1.214" transform="translate(35.798 45.188)"/>
      <circle id="Oval-5" data-name="Oval" cx="1.214" cy="1.214" r="1.214" transform="translate(23.584 43.195)"/>
      <circle id="Oval-6" data-name="Oval" cx="1.214" cy="1.214" r="1.214" transform="translate(15.367 44.434)"/>
      <path id="Path-3" data-name="Path" d="M1.332.089A.935.935,0,1,0,.538,1.781l1.686.792A.935.935,0,1,0,3.019.88Z" transform="translate(19.583 45.911)"/>
      <path id="Path-4" data-name="Path" d="M3.019.881,1.332.089A.935.935,0,0,0,.538,1.781l1.687.792A.935.935,0,1,0,3.019.881Z" transform="translate(41.166 45.119)"/>
      <path id="Path-5" data-name="Path" d="M2.038.137l-1.59.971a.935.935,0,1,0,.974,1.6l1.59-.971a.935.935,0,0,0-.974-1.6Z" transform="translate(30.366 44.129)"/>
    </g>
  </g>
</svg>
