<svg xmlns="http://www.w3.org/2000/svg" width="78" height="62" viewBox="0 0 78 62">
  <g id="Icons_Circle_maquillage" data-name="Icons/Circle/maquillage" transform="translate(-19 -26.5)">
    <path id="ecran_1_forme_1" d="M53.757,13.481c3.151,1.6,6.267,3.522,11.3,6.694C70.08,23.332,76.985,27.758,77.9,32.31c.9,4.569-4.236,9.3-9.057,14.055C64.019,51.108,59.491,55.9,53.482,58.8a35.157,35.157,0,0,1-20.817,2.681A38.032,38.032,0,0,1,12.881,51.6C7.509,46.428,3.876,39.576,1.723,31.961c-2.135-7.614-2.772-15.99.947-22.145C6.372,3.662,14.448-.257,22.093.013,29.738.3,36.969,4.8,42.187,7.691S50.589,11.863,53.757,13.481Z" transform="translate(19 26.5)" fill="#fff7ea"/>
    <g id="make_up" data-name="make up" transform="translate(33 33)">
      <path id="Shape" d="M43.285,44.8H1.508A1.493,1.493,0,0,1,.015,43.266L0,23.151a8.2,8.2,0,0,1,6.715-8.078V11.945a1.5,1.5,0,0,1,1.493-1.493v-1.7a1.494,1.494,0,0,1-.746-1.286V1.493A1.5,1.5,0,0,1,8.955,0h3.734a1.5,1.5,0,0,1,1.493,1.493V7.466a1.492,1.492,0,0,1-.747,1.285v1.7a1.5,1.5,0,0,1,1.494,1.493v2.986h1.493V8.213a.614.614,0,0,1,.014-.071.661.661,0,0,1,0-.073l.769-3.914a1.488,1.488,0,0,1,1.439-1.169h.02a1.492,1.492,0,0,1,1.448,1.131l.777,3.952a.494.494,0,0,1,0,.073.615.615,0,0,1,.014.071v6.719h2.24V9.982A4.277,4.277,0,0,1,22.4,7.316c0-2.087,2.263-3.96,2.521-4.167a.138.138,0,0,1,.032-.017.145.145,0,0,0,.029-.015.766.766,0,0,1,.545-.109.807.807,0,0,1,.266.11.169.169,0,0,0,.027.013.133.133,0,0,1,.035.019c.258.207,2.52,2.078,2.52,4.166a4.286,4.286,0,0,1-.746,2.667v4.948h2.987V7.664L27.723,2.61a.08.08,0,0,1-.007-.021.1.1,0,0,0-.006-.019.734.734,0,0,1-.047-.142.711.711,0,0,1-.03-.145.1.1,0,0,0,0-.021.08.08,0,0,1,0-.022,1.225,1.225,0,0,1,.022-.142c0-.01,0-.019,0-.028a.235.235,0,0,1,.007-.039C28,.057,33.027,0,33.6,0s5.6.057,5.941,2.03a.25.25,0,0,1,.007.039c0,.009,0,.019,0,.028a1.256,1.256,0,0,1,.022.142.075.075,0,0,1,0,.023.087.087,0,0,0,0,.021.666.666,0,0,1-.03.145.734.734,0,0,1-.047.142.089.089,0,0,0-.006.019.08.08,0,0,1-.007.022L36.586,7.664v7.268a8.287,8.287,0,0,1,1.846.216l2.54-2.538a2.226,2.226,0,0,1,1.574-.661h.008a2.237,2.237,0,0,1,1.588,3.822l-1.664,1.664a8.106,8.106,0,0,1,2.317,5.715l-.015,20.137a1.481,1.481,0,0,1-.43,1.068A1.5,1.5,0,0,1,43.285,44.8ZM8.214,16.424a6.72,6.72,0,0,0-6.72,6.725l.014,20.137,41.777.022L43.3,23.149a6.72,6.72,0,0,0-6.72-6.725Zm34.337-2.983a.725.725,0,0,0-.52.22l-2.024,2.023a8.168,8.168,0,0,1,1.334.774l1.744-1.743a.744.744,0,0,0-.523-1.274h-.011ZM9.7,8.959v1.493a1.5,1.5,0,0,1-1.494,1.493v2.987h5.227V11.945a1.5,1.5,0,0,1-1.493-1.493V8.959ZM32.1,11.2v3.732h2.987V11.2Zm-7.467,2.239v1.493h1.493V13.438ZM17.916,8.959v5.972h1.493V8.959Zm6.721,1.493v1.493h1.493V10.452ZM32.1,8.213V9.706h2.987V8.213ZM25.384,4.739a4.518,4.518,0,0,0-1.493,2.578,3.156,3.156,0,0,0,.358,1.643h2.271a3.166,3.166,0,0,0,.358-1.643A4.513,4.513,0,0,0,25.384,4.739Zm-6.73-.3h0l-.58,3.024h1.175l-.595-3.024Zm-9.7-2.948V7.466h3.734V1.493Zm24.644,0a9.411,9.411,0,0,0-4.361.758l2.554,4.469h3.614l2.554-4.469A9.406,9.406,0,0,0,33.6,1.493Z" transform="translate(0)"/>
      <path id="Shape-2" data-name="Shape" d="M10.4,17.6a.752.752,0,0,1-.543-.232L1.371,8.429a5.111,5.111,0,0,1,0-6.965A4.631,4.631,0,0,1,4.734,0h.005A4.642,4.642,0,0,1,8.112,1.463L10.4,3.876l2.286-2.412A4.642,4.642,0,0,1,16.061,0h.005A4.628,4.628,0,0,1,19.43,1.463a5.111,5.111,0,0,1,0,6.965l-8.488,8.94A.751.751,0,0,1,10.4,17.6ZM4.736,1.466h0a3.143,3.143,0,0,0-2.282,1,3.622,3.622,0,0,0,0,4.958l7.947,8.37,7.945-8.368a3.621,3.621,0,0,0,0-4.96,3.116,3.116,0,0,0-4.575,0L10.943,5.45a.778.778,0,0,1-.543.222.769.769,0,0,1-.544-.222L7.028,2.466a3.152,3.152,0,0,0-2.29-1Z" transform="translate(12.8 20.8)"/>
    </g>
  </g>
</svg>
