<?xml version="1.0" encoding="UTF-8"?>
<svg width="78px" height="64px" viewBox="0 0 78 64" version="1.1" xmlns="http://www.w3.org/2000/svg" xmlns:xlink="http://www.w3.org/1999/xlink">
    <!-- Generator: Sketch 64 (93537) - https://sketch.com -->
    <title>icon1</title>
    <desc>Created with Sketch.</desc>
    <g id="Concept" stroke="none" stroke-width="1" fill="none" fill-rule="evenodd">
        <g id="1.1-Concept" transform="translate(-683.000000, -4527.000000)">
            <g id="Section-5" transform="translate(0.000000, 4254.000000)">
                <g id="bandeau-footer" transform="translate(135.000000, 248.000000)">
                    <g id="concept" transform="translate(425.000000, 0.000000)">
                        <g id="Group-2" transform="translate(85.000000, 0.000000)">
                            <g id="Icons/Circle/concept" transform="translate(19.000000, 0.000000)">
                                <g id="icon1" transform="translate(19.000000, 25.000000)">
                                    <path d="M53.7573087,14.9808255 C56.9082711,16.5829943 60.0247968,18.5024242 65.052562,21.6750357 C70.0803273,24.8317841 76.9848952,29.2575771 77.8974691,33.8102745 C78.7928245,38.3788351 73.6617491,43.1060261 68.8406043,47.8649433 C64.0194596,52.6079975 59.4910272,57.3986408 53.4818147,60.3015803 C47.4726022,63.2045198 39.9653911,64.2197555 32.6648005,62.982437 C25.3642099,61.7451185 18.2530214,58.271109 12.8808887,53.0997523 C7.50875603,47.9283956 3.87567911,41.0755548 1.72338235,33.4612873 C-0.411696026,25.8470198 -1.04877586,17.4713255 2.67039293,11.3164592 C6.37234334,5.16159299 14.4477608,1.24341782 22.0927188,1.5130898 C29.7376769,1.79862483 36.969394,6.30373311 42.1865613,9.19080955 C47.4037287,12.077886 50.5891279,13.3627936 53.7573087,14.9808255 Z" id="ecran_1_forme_1" fill="#FFF7EA"></path>
                                    <g id="noun_Idea_2457857" transform="translate(7.000000, 0.000000)" fill="#000000" fill-rule="nonzero">
                                        <g id="Group">
                                            <path d="M28.06,10.79 C19.9615687,10.8500795 13.0298928,16.6146871 11.4944461,24.5664543 C9.95899949,32.5182216 14.2461401,40.4491267 21.74,43.52 L21.74,51.22 C21.7399956,54.7120609 24.5679434,57.5444833 28.06,57.55 C31.5536792,57.5444938 34.3844938,54.7136792 34.39,51.22 L34.39,43.52 C41.8855038,40.4483579 46.1725656,32.5147027 44.6344328,24.5616083 C43.0963,16.608514 36.1602773,10.8454095 28.06,10.79 L28.06,10.79 Z M23.74,48.79 L32.39,48.79 L32.39,51 L23.74,51 L23.74,48.79 Z M28.06,55.51 C26.9304792,55.4949461 25.8524776,55.0349987 25.06,54.23 C24.6746352,53.882841 24.358999,53.4653867 24.13,53 L32,53 C31.3031457,54.5514845 29.7607969,55.5497052 28.06,55.55 L28.06,55.51 Z M33.06,41.84 C32.6601089,41.9797915 32.3916876,42.3563826 32.39,42.78 L32.39,46.78 L28.94,46.78 L28.94,37 L33.47,35.18 L32.72,33.33 L27.94,35.24 L23.15,33.33 L22.41,35.18 L26.94,37 L26.94,46.81 L23.74,46.81 L23.74,42.81 C23.7383124,42.3863826 23.4698911,42.0097915 23.07,41.87 C16.1822666,39.4348185 12.0506396,32.3916689 13.2860216,25.1913347 C14.5214036,17.9910005 20.7644555,12.7278644 28.07,12.7278644 C35.3755445,12.7278644 41.6185964,17.9910005 42.8539784,25.1913347 C44.0893604,32.3916689 39.9577334,39.4348185 33.07,41.87 L33.06,41.84 Z" id="Shape"></path>
                                            <path d="M39.85,24.11 C39.0119493,21.5429171 37.2942957,19.3542369 35,17.93 L34,19.62 C36.3235598,21.069711 37.9039056,23.4561561 38.3317332,26.1612543 C38.7595608,28.8663524 37.9927857,31.6240088 36.23,33.72 L37.72,35 C40.2715568,31.9855257 41.0777581,27.8636792 39.85,24.11 L39.85,24.11 Z" id="Path"></path>
                                            <rect id="Rectangle" x="27.27" y="0.24" width="2" height="6.93"></rect>
                                            <rect id="Rectangle" transform="translate(46.825542, 10.978662) rotate(-49.870000) translate(-46.825542, -10.978662) " x="43.3605418" y="9.97866152" width="6.93" height="2"></rect>
                                            <rect id="Rectangle" transform="translate(10.865211, 47.262881) rotate(-49.870000) translate(-10.865211, -47.262881) " x="7.40021145" y="46.2628813" width="6.93" height="2"></rect>
                                            <rect id="Rectangle" transform="translate(47.974373, 44.415307) rotate(-49.850000) translate(-47.974373, -44.415307) " x="46.9743727" y="40.9503067" width="2" height="6.93"></rect>
                                            <rect id="Rectangle" transform="translate(11.688561, 8.457214) rotate(-49.850000) translate(-11.688561, -8.457214) " x="10.6885609" y="4.99221411" width="2" height="6.93"></rect>
                                            <rect id="Rectangle" transform="translate(55.544623, 26.691993) rotate(-4.850000) translate(-55.544623, -26.691993) " x="52.079623" y="25.6919932" width="6.93" height="2"></rect>
                                            <rect id="Rectangle" transform="translate(4.456999, 26.920697) rotate(-4.850000) translate(-4.456999, -26.920697) " x="0.99199885" y="25.9206971" width="6.93" height="2"></rect>
                                        </g>
                                    </g>
                                </g>
                            </g>
                        </g>
                    </g>
                </g>
            </g>
        </g>
    </g>
</svg>