<svg xmlns="http://www.w3.org/2000/svg" width="78" height="62" viewBox="0 0 78 62">
  <g id="Icons_Circle_bonbons" data-name="Icons/Circle/bonbons" transform="translate(-15 -25.5)">
    <path id="ecran_1_forme_1" d="M-53.757,13.481c-3.151,1.6-6.267,3.522-11.3,6.694C-70.08,23.332-76.985,27.758-77.9,32.31c-.9,4.569,4.236,9.3,9.057,14.055,4.821,4.743,9.35,9.534,15.359,12.437a35.157,35.157,0,0,0,20.817,2.681A38.032,38.032,0,0,0-12.881,51.6c5.372-5.171,9.005-12.024,11.158-19.638C.412,24.347,1.049,15.971-2.67,9.816-6.372,3.662-14.448-.257-22.093.013-29.738.3-36.969,4.8-42.187,7.691S-50.589,11.863-53.757,13.481Z" transform="translate(93 25.5)" fill="#fff7ea"/>
    <g id="candy" transform="translate(33 33)">
      <path id="Shape" d="M12.73,44.8c-.074,0-.149,0-.227-.011a2.482,2.482,0,0,1-1.678-.818,1.447,1.447,0,0,1-.311-1.123l.014-.1a.494.494,0,0,0-.3-.28l-.531.077a1.429,1.429,0,0,1-.2.014A1.816,1.816,0,0,1,8.246,42,1.748,1.748,0,0,1,7.7,40.551l.078-.544a.5.5,0,0,0-.3-.282l-.529.078a1.463,1.463,0,0,1-.193.013A1.816,1.816,0,0,1,5.5,39.259a1.751,1.751,0,0,1-.543-1.453l.078-.545a.5.5,0,0,0-.3-.282l-.529.078a1.473,1.473,0,0,1-.191.012,1.817,1.817,0,0,1-1.264-.555,1.755,1.755,0,0,1-.545-1.455l.078-.545a.494.494,0,0,0-.3-.281,1.453,1.453,0,0,1-.211.016,1.484,1.484,0,0,1-.928-.336,2.564,2.564,0,0,1-.844-1.736c-.1-1.19.753-2.233,2.284-2.788a22,22,0,0,1,10.016-3.5l-.86-.86a3.793,3.793,0,0,1,0-5.36l8.217-8.214.45-.45.039.051a3.791,3.791,0,0,1,2.208-.7,3.747,3.747,0,0,1,2.667,1.1l1.21,1.209A29.892,29.892,0,0,1,29.4,2.391,3.949,3.949,0,0,1,30.449.634,2.391,2.391,0,0,1,32.069,0c.075,0,.151,0,.227.01a2.483,2.483,0,0,1,1.679.819,1.437,1.437,0,0,1,.311,1.123l-.014.1a.5.5,0,0,0,.3.281l.532-.077a1.4,1.4,0,0,1,.2-.015,1.807,1.807,0,0,1,1.253.558A1.743,1.743,0,0,1,37.1,4.248l-.078.545a.494.494,0,0,0,.3.281L37.846,5a1.387,1.387,0,0,1,.207-.015A1.807,1.807,0,0,1,39.3,5.54a1.744,1.744,0,0,1,.543,1.454l-.078.544a.5.5,0,0,0,.3.281l.532-.077a1.4,1.4,0,0,1,.2-.015,1.813,1.813,0,0,1,1.252.558,1.747,1.747,0,0,1,.543,1.454l-.078.545a.5.5,0,0,0,.3.28,1.46,1.46,0,0,1,.21-.015,1.483,1.483,0,0,1,.93.337,2.554,2.554,0,0,1,.843,1.735c.1,1.192-.752,2.234-2.284,2.787a22.006,22.006,0,0,1-10.017,3.5l.755.754a3.793,3.793,0,0,1,0,5.36l-1.561,1.561-6.657,6.654a3.8,3.8,0,0,1-5.363,0l-1.1-1.1A29.931,29.931,0,0,1,15.4,42.409a3.869,3.869,0,0,1-1.064,1.772A2.39,2.39,0,0,1,12.73,44.8Zm-2.5-3.843a1.809,1.809,0,0,1,1.255.557,1.745,1.745,0,0,1,.544,1.454l-.014.1a1.364,1.364,0,0,0,.621.217l.062,0c.826,0,1.178-1.065,1.24-1.279l0-.111.1-.169A29.214,29.214,0,0,0,17.2,30.779l-.83-.829a.744.744,0,0,1-.26.258,7.173,7.173,0,0,0-3.174,6.915.76.76,0,0,1-.659.847.827.827,0,0,1-.095.005.758.758,0,0,1-.751-.664,9.1,9.1,0,0,1,1.717-6.447,8.133,8.133,0,0,1-1.686.183c-.451.015-.918.031-1.461.1a.819.819,0,0,1-.095.006.759.759,0,0,1-.752-.664.756.756,0,0,1,.658-.846c.585-.073,1.089-.094,1.6-.111a3.124,3.124,0,0,0,2.916-1.21.745.745,0,0,1,.231-.183l-.84-.84c-1.488.073-6.656.532-10.631,3.386L3,30.749l-.13.045c-.237.082-1.414.527-1.35,1.255a1.031,1.031,0,0,0,.29.688,1.318,1.318,0,0,1,.2-.015,1.785,1.785,0,0,1,1.236.556,1.747,1.747,0,0,1,.544,1.454l-.078.545a.506.506,0,0,0,.3.28l.531-.078a1.466,1.466,0,0,1,.192-.013,1.825,1.825,0,0,1,1.264.557,1.748,1.748,0,0,1,.543,1.454l-.077.544a.507.507,0,0,0,.3.281l.529-.077a1.439,1.439,0,0,1,.2-.013,1.817,1.817,0,0,1,1.259.557,1.752,1.752,0,0,1,.544,1.454l-.078.544a.5.5,0,0,0,.3.282l.53-.078A1.49,1.49,0,0,1,10.232,40.957Zm4.153-22.083L12.52,20.74a2.277,2.277,0,0,0,0,3.216l1.814,1.813,4.445,4.442,1.958,1.958a2.281,2.281,0,0,0,3.218,0L24.127,32Zm5.559-5.557L19,14.265,15.471,17.79l9.742,13.124,4.474-4.473Zm2.4-1.457a2.266,2.266,0,0,0-1.293.408l9.716,13.09,1.4-1.4a2.281,2.281,0,0,0,0-3.217l-8.218-8.214A2.259,2.259,0,0,0,22.348,11.859Zm12.584,1.789a.764.764,0,0,1,.76.664.757.757,0,0,1-.659.845c-.6.077-1.127.1-1.588.111h-.008a3.12,3.12,0,0,0-2.915,1.21.746.746,0,0,1-.265.2l.823.824c1.487-.072,6.651-.528,10.631-3.386l.218-.11c.237-.081,1.414-.522,1.351-1.254a1.029,1.029,0,0,0-.29-.688,1.3,1.3,0,0,1-.2.015,1.789,1.789,0,0,1-1.236-.554,1.751,1.751,0,0,1-.544-1.454l.078-.545a.494.494,0,0,0-.3-.28l-.532.076a1.4,1.4,0,0,1-.2.015,1.811,1.811,0,0,1-1.251-.558,1.748,1.748,0,0,1-.543-1.454l.078-.545a.5.5,0,0,0-.3-.281l-.532.077a1.412,1.412,0,0,1-.2.014,1.8,1.8,0,0,1-1.253-.558,1.743,1.743,0,0,1-.544-1.453l.077-.546a.494.494,0,0,0-.3-.28l-.531.076a1.439,1.439,0,0,1-.2.014,1.813,1.813,0,0,1-1.256-.556,1.748,1.748,0,0,1-.543-1.454l.014-.1a1.37,1.37,0,0,0-.62-.218l-.074,0c-.8,0-1.162,1.064-1.227,1.277V2.9l-.1.174A29.221,29.221,0,0,0,27.6,14.021l.861.863a.746.746,0,0,1,.276-.293,7.175,7.175,0,0,0,3.174-6.915.756.756,0,0,1,.75-.851.761.761,0,0,1,.756.663A9.1,9.1,0,0,1,31.7,13.935a8.009,8.009,0,0,1,1.685-.182H33.4c.448-.016.912-.033,1.445-.1A.769.769,0,0,1,34.932,13.648Z"/>
    </g>
  </g>
</svg>
