<?xml version="1.0" encoding="UTF-8"?>
<svg width="78px" height="68px" viewBox="0 0 78 68" version="1.1" xmlns="http://www.w3.org/2000/svg" xmlns:xlink="http://www.w3.org/1999/xlink">
    <!-- Generator: Sketch 64 (93537) - https://sketch.com -->
    <title>icon2</title>
    <desc>Created with Sketch.</desc>
    <g id="Concept" stroke="none" stroke-width="1" fill="none" fill-rule="evenodd">
        <g id="1.1-Concept" transform="translate(-1108.000000, -4524.000000)">
            <g id="Section-5" transform="translate(0.000000, 4254.000000)">
                <g id="bandeau-footer" transform="translate(135.000000, 248.000000)">
                    <g id="equipe" transform="translate(850.000000, 0.000000)">
                        <g id="Group-4" transform="translate(104.000000, 0.000000)">
                            <g id="Icons/Circle/equipe">
                                <g id="icon2" transform="translate(19.000000, 22.000000)">
                                    <path d="M53.7573087,17.9808255 C56.9082711,19.5829943 60.0247968,21.5024242 65.052562,24.6750357 C70.0803273,27.8317841 76.9848952,32.2575771 77.8974691,36.8102745 C78.7928245,41.3788351 73.6617491,46.1060261 68.8406043,50.8649433 C64.0194596,55.6079975 59.4910272,60.3986408 53.4818147,63.3015803 C47.4726022,66.2045198 39.9653911,67.2197555 32.6648005,65.982437 C25.3642099,64.7451185 18.2530214,61.271109 12.8808887,56.0997523 C7.50875603,50.9283956 3.87567911,44.0755548 1.72338235,36.4612873 C-0.411696026,28.8470198 -1.04877586,20.4713255 2.67039293,14.3164592 C6.37234334,8.16159299 14.4477608,4.24341782 22.0927188,4.5130898 C29.7376769,4.79862483 36.969394,9.30373311 42.1865613,12.1908095 C47.4037287,15.077886 50.5891279,16.3627936 53.7573087,17.9808255 Z" id="ecran_1_forme_1" fill="#FFF7EA"></path>
                                    <g id="noun_Pregnant_2854187" transform="translate(15.000000, 0.000000)" fill="#000000" fill-rule="nonzero">
                                        <g id="Group">
                                            <path d="M23.518,17.4977 C23.9305538,17.3283799 24.2000576,16.926732 24.2003461,16.4807837 C24.2006341,16.0348354 23.9316496,15.6328394 23.519315,15.4629862 C23.1069804,15.293133 22.6328961,15.3890364 22.319,15.7058 C22.2219415,15.8123898 22.1438166,15.9347856 22.088,16.0677 C21.9705986,16.3340015 21.9705986,16.6373985 22.088,16.9037 C22.2456223,17.3235354 22.6516817,17.5976255 23.1,17.5868 C23.2438186,17.584714 23.385832,17.5544428 23.518,17.4977 L23.518,17.4977 Z" id="Path"></path>
                                            <path d="M28.919,17.27 C29.1301558,17.4704527 29.4088884,17.5843012 29.7,17.589 C29.8438186,17.586914 29.985832,17.5566428 30.118,17.4999 C30.5305538,17.3305799 30.8000576,16.928932 30.8003461,16.4829837 C30.8006341,16.0370354 30.5316496,15.6350394 30.119315,15.4651862 C29.7069804,15.295333 29.2328961,15.3912364 28.919,15.708 C28.8219415,15.8145898 28.7438166,15.9369856 28.688,16.0699 C28.5705986,16.3362015 28.5705986,16.6395985 28.688,16.9059 C28.7414145,17.0407152 28.8197852,17.1642424 28.919,17.27 Z" id="Path"></path>
                                            <path d="M40.7,32.2135 L40.7,9.9 C40.6939378,4.43489401 36.265106,0.00606224186 30.8,0 L28.6,0 C23.134894,0.00606224186 18.7060622,4.43489401 18.7,9.9 L18.7,36.4166 C16.5376373,36.8563282 14.8481186,38.5470086 14.4098768,40.7096731 C13.971635,42.8723375 14.8697019,45.0873656 16.6903,46.3342 C15.8776855,46.7338341 15.1127486,47.223866 14.41,47.795 C13.1192971,46.5234058 11.0447475,46.53028 9.7625,47.8104 L8.2071,49.3658 C7.58810905,49.9846861 7.24035474,50.8241387 7.24035474,51.69945 C7.24035474,52.5747613 7.58810905,53.4142139 8.2071,54.0331 L8.349,54.175 C7.93366505,54.73143 7.70634575,55.4056822 7.7,56.1 L7.7,58.3 C7.70524914,60.0168911 9.02857373,61.4417153 10.7404,61.5736 L12.8854,67.1462 L14.9391,66.3553 L13.1087,61.6 L37.246,61.6 C37.668298,61.5985269 38.0890384,61.5487024 38.5,61.4515 L38.5,66 L40.7,66 L40.7,60.3702 C41.1347854,60.0229775 41.5142252,59.6116396 41.8253,59.1503 L41.9782,58.9204 C42.5807826,58.0169565 42.9016014,56.954962 42.9,55.869 L42.9,46.2 C43.5075132,46.2 44,45.7075132 44,45.1 L44,38.5 C43.9946259,35.9908354 42.7621596,33.6429872 40.7,32.2135 Z M20.9,11 L20.9,9.9 C20.9048495,5.64941778 24.3494178,2.2048495 28.6,2.2 L30.8,2.2 C35.0505822,2.2048495 38.4951505,5.64941778 38.5,9.9 L38.5,13.4024 C38.1477173,13.2721185 37.7755836,13.2036459 37.4,13.2 L35.332,13.2 C33.3127217,12.696406 31.8968026,10.881125 31.9,8.8 C31.9,8.19248678 31.4075132,7.7 30.8,7.7 C27.145129,7.68997077 23.6168748,9.03815592 20.9,11.4829 L20.9,11 Z M37.4,17.6 L36.3,17.6 L36.3,15.4 L37.4,15.4 C38.0075132,15.4 38.5,15.8924868 38.5,16.5 C38.5,17.1075132 38.0075132,17.6 37.4,17.6 Z M38.5,19.5976 L38.5,31.13 C37.7866584,30.9134141 37.0454936,30.8022394 36.3,30.8 L32.9659,30.8 C32.9849227,30.7280597 32.9963518,30.6543234 33,30.58 L33,27.2096 C35.0660971,25.7730163 36.2986101,23.4164515 36.3,20.9 L36.3,19.8 L37.4,19.8 C37.7755836,19.7963541 38.1477173,19.7278815 38.5,19.5976 Z M20.9,14.6861 L20.9374,14.6388 C23.1096937,11.9104905 26.3185784,10.2082235 29.7957,9.9396 C30.202736,12.3071441 31.8443908,14.2764586 34.1,15.103 L34.1,20.9 C34.0963633,23.9360585 31.6360585,26.3963633 28.6,26.4 L26.4,26.4 C23.3639415,26.3963633 20.9036367,23.9360585 20.9,20.9 L20.9,14.6861 Z M27.1018,35.5597 L26.4,30.503 L26.4,28.6 L28.6,28.6 C29.3454936,28.5977606 30.0866584,28.4865859 30.8,28.27 L30.8,30.2302 L27.1018,35.5597 Z M20.9,26.2779 C21.8126886,27.2129806 22.9483249,27.9004191 24.2,28.2755 L24.2,30.5855 C24.1998302,30.6363051 24.2035074,30.6870501 24.211,30.7373 L24.2341,30.9034 C22.9929607,31.1042375 21.8356725,31.6574908 20.9,32.4973 L20.9,26.2779 Z M9.44458947,51.7 C9.44331602,51.4080192 9.55945559,51.127778 9.7669,50.9223 L11.3223,49.3669 C11.7518498,48.9374799 12.4481502,48.9374799 12.8777,49.3669 L14.4331,50.9234 C14.8625201,51.3529498 14.8625201,52.0492502 14.4331,52.4788 L12.8777,54.0342 C12.4481502,54.4636201 11.7518498,54.4636201 11.3223,54.0342 L9.7669,52.4777 C9.55945559,52.272222 9.44331602,51.9919808 9.44458947,51.7 L9.44458947,51.7 Z M40.7000138,55.869 C40.7018844,56.5211518 40.5104961,57.1592406 40.15,57.7027 L39.9971,57.9326 C39.3835363,58.8514345 38.3508585,59.4022511 37.246,59.4000069 L11,59.4000069 C10.3924868,59.4000069 9.9,58.9075132 9.9,58.3 L9.9,56.1 C9.90215599,55.9807116 9.92370411,55.8625685 9.9638,55.7502 C11.2636778,56.8811983 13.2177526,56.8109805 14.4331,55.5896 L15.0227,55 L15.4,55 C15.696661,54.9992617 15.9804596,55.1210602 16.1843,55.3366 C16.3882966,55.5379994 16.5021639,55.8133441 16.5,56.1 C16.500089,56.4154532 16.6356049,56.7156871 16.8721191,56.9244255 C17.1086333,57.133164 17.4233814,57.2303162 17.7364,57.1912 L34.3629,55.11 C35.4659079,54.9772437 36.2968508,54.0429639 36.3,52.932 L36.3,46.2 L40.7000138,46.2 L40.7000138,55.869 Z M41.8,44 L35.2,44 C34.5924868,44 34.1,44.4924868 34.1,45.1 L34.1,52.9298 L18.48,54.8823 C18.3164117,54.4679125 18.0667062,54.0929794 17.7474,53.7823 C17.4414445,53.4673143 17.0741917,53.218361 16.6683,53.0508 C17.2373518,51.8048369 16.9705083,50.3363196 15.9995,49.3702 C17.1780558,48.4478103 18.5541468,47.8107799 20.02,47.509 C20.5322329,47.4044409 20.9001067,46.9537955 20.9,46.431 L20.9,46.2 C20.9,45.5924868 20.4075132,45.1 19.8,45.1 C17.9774603,45.1 16.5,43.6225397 16.5,41.8 C16.5,39.9774603 17.9774603,38.5 19.8,38.5 C20.4075132,38.5 20.9,38.0075132 20.9,37.4 C20.9049761,35.2683358 22.4372582,33.4468389 24.5366,33.077 L24.9227,35.8633 C25.0474459,36.7607558 25.709661,37.4899405 26.5909876,37.7003013 C27.4723143,37.9106621 28.3924727,37.5591686 28.9091,36.8148 L31.559,33 L36.3,33 C39.3360585,33.0036367 41.7963633,35.4639415 41.8,38.5 L41.8,44 Z" id="Shape"></path>
                                            <path d="M11,40.9596 C11,39.8158352 10.4076719,38.7536499 9.43467707,38.1524189 C8.46168219,37.5511878 7.24674581,37.4966559 6.2238,38.0083 L5.9917,38.1238 C5.68214817,38.2784835 5.31785183,38.2784835 5.0083,38.1238 L4.7762,38.0083 C3.75325419,37.4966559 2.53831781,37.5511878 1.56532293,38.1524189 C0.592328051,38.7536499 0,39.8158352 0,40.9596 C0.0034468308,42.5266089 0.741244612,44.0013901 1.9932,44.9438 L4.84,47.08 C5.23111111,47.3733333 5.76888889,47.3733333 6.16,47.08 L9.0068,44.9438 C10.2587554,44.0013901 10.9965532,42.5266089 11,40.9596 L11,40.9596 Z M7.6879,43.1849 L5.5,44.825 L3.3121,43.1849 C2.61367674,42.6579642 2.20214865,41.834501 2.19997559,40.9596 C2.19744363,40.5773976 2.39584427,40.2219472 2.7225,40.0235 C2.89638585,39.9166766 3.09593929,39.8589011 3.3,39.8563 C3.47034315,39.8570706 3.63808406,39.8981577 3.7895,39.9762 L4.0216,40.0917 C4.95150508,40.5537296 6.04409492,40.5537296 6.974,40.0917 L7.2061,39.9762 C7.5471773,39.8048085 7.95272599,39.8224942 8.27758831,40.0229268 C8.60245063,40.2233595 8.80017876,40.5778819 8.80000012,40.9596 C8.79785135,41.834501 8.38632326,42.6579642 7.6879,43.1849 L7.6879,43.1849 Z" id="Shape"></path>
                                            <path d="M23.2166,21.5083 C23.0860675,21.7693846 23.0646589,22.0716458 23.1570887,22.3485224 C23.2495184,22.625399 23.4482066,22.8541853 23.7094,22.9845 C25.4044096,23.8261273 27.3955904,23.8261273 29.0906,22.9845 C29.4453351,22.8106736 29.6796216,22.4599792 29.7044028,22.0657223 C29.729184,21.6714654 29.5406541,21.2941946 29.2104768,21.0773178 C28.8802996,20.8604409 28.4591824,20.8372651 28.1072,21.0166 C27.0315983,21.5517997 25.7673017,21.5517997 24.6917,21.0166 C24.148561,20.7453546 23.488364,20.9654203 23.2166,21.5083 Z" id="Path"></path>
                                        </g>
                                    </g>
                                </g>
                            </g>
                        </g>
                    </g>
                </g>
            </g>
        </g>
    </g>
</svg>