<svg xmlns="http://www.w3.org/2000/svg" width="78" height="62" viewBox="0 0 78 62">
  <g id="Icons_Circle_espace_privatise" data-name="Icons/Circle/espace_privatise" transform="translate(-21 -26.5)">
    <path id="ecran_1_forme_1" d="M53.757,13.481c3.151,1.6,6.267,3.522,11.3,6.694C70.08,23.332,76.985,27.758,77.9,32.31c.9,4.569-4.236,9.3-9.057,14.055C64.019,51.108,59.491,55.9,53.482,58.8a35.157,35.157,0,0,1-20.817,2.681A38.032,38.032,0,0,1,12.881,51.6C7.509,46.428,3.876,39.576,1.723,31.961c-2.135-7.614-2.772-15.99.947-22.145C6.372,3.662,14.448-.257,22.093.013,29.738.3,36.969,4.8,42.187,7.691S50.589,11.863,53.757,13.481Z" transform="translate(21 26.5)" fill="#fff7ea"/>
    <g id="space" transform="translate(31 32)">
      <path id="Shape" d="M3.635,10.859a1.48,1.48,0,0,1-.7-.179,1.385,1.385,0,0,1-.74-1.3L2.3,7.253.565,5.96A1.374,1.374,0,0,1,.029,4.573,1.411,1.411,0,0,1,1.07,3.493L3.188,2.94,3.912.935A1.427,1.427,0,0,1,5.1.01,1.532,1.532,0,0,1,5.276,0,1.448,1.448,0,0,1,6.485.638l1.2,1.788,2.185.052a1.439,1.439,0,0,1,1.273.814,1.361,1.361,0,0,1-.187,1.47L9.576,6.42,10.2,8.459A1.366,1.366,0,0,1,9.8,9.887a1.461,1.461,0,0,1-.976.373,1.484,1.484,0,0,1-.52-.094L6.251,9.4l-1.8,1.207A1.468,1.468,0,0,1,3.635,10.859ZM5.277,1.421,4.551,3.414a1.423,1.423,0,0,1-.986.887l-2.1.549L3.192,6.141a1.387,1.387,0,0,1,.563,1.184L3.643,9.439l1.792-1.2a1.479,1.479,0,0,1,1.336-.154L8.8,8.845l-.619-2.03a1.371,1.371,0,0,1,.261-1.28L9.815,3.887,7.637,3.831a1.457,1.457,0,0,1-1.174-.638Z" transform="translate(6.264 0.22)"/>
      <path id="Shape-2" data-name="Shape" d="M5.716,8.771a1.361,1.361,0,0,1-.859-.3L3.6,7.439l-1.613.385a1.407,1.407,0,0,1-.327.039,1.343,1.343,0,0,1-1-.436,1.173,1.173,0,0,1-.21-1.286L1.1,4.712.208,3.4A1.169,1.169,0,0,1,.191,2.093,1.316,1.316,0,0,1,1.308,1.5c.04,0,.082,0,.122.005l1.657.14L4.144.446a1.336,1.336,0,0,1,1-.446,1.407,1.407,0,0,1,.308.034,1.272,1.272,0,0,1,.977.924l.374,1.517,1.548.577a1.242,1.242,0,0,1,.828,1.053,1.208,1.208,0,0,1-.635,1.158l-1.421.8-.1,1.55a1.231,1.231,0,0,1-.8,1.061A1.375,1.375,0,0,1,5.716,8.771ZM3.641,6.026a1.368,1.368,0,0,1,.862.3L5.571,7.2l.086-1.314A1.221,1.221,0,0,1,6.294,4.9l1.2-.671-1.3-.486a1.264,1.264,0,0,1-.8-.871L5.068,1.582,4.168,2.6a1.342,1.342,0,0,1-1.008.445c-.04,0-.08,0-.119-.005l-1.4-.118.751,1.106a1.175,1.175,0,0,1,.1,1.15L1.949,6.392l1.37-.328A1.4,1.4,0,0,1,3.641,6.026Z" transform="translate(33.41 11.914)"/>
      <path id="Shape-3" data-name="Shape" d="M47.114,30.069H2.165a2.091,2.091,0,1,1-.048-4.181v-4a.722.722,0,0,1,1.444,0v4H11.55V18.125H3.561v.75a.722.722,0,0,1-1.444,0v-.751A2.139,2.139,0,0,1,0,16.034V4.508A2.132,2.132,0,0,1,2.165,2.417,2.132,2.132,0,0,1,4.332,4.508v9.435H8.815V9.9a2.608,2.608,0,0,1,2.65-2.558h6.148a5.5,5.5,0,0,1,1.551-3.166A5.843,5.843,0,0,1,22.337,2.51a1.857,1.857,0,0,1-.1-.6,1.974,1.974,0,0,1,3.947,0,1.831,1.831,0,0,1-.1.6,5.844,5.844,0,0,1,3.174,1.667A5.5,5.5,0,0,1,30.8,7.343h7.608A2.608,2.608,0,0,1,41.059,9.9v4.042h3.89V9.233a.722.722,0,0,1,1.444,0v5.406a.711.711,0,0,1-.722.7H36.142a.7.7,0,1,0,0,1.394H47.114a.711.711,0,0,0,.722-.7V4.508a.722.722,0,0,0-1.444,0V6.274a.722.722,0,0,1-1.444,0V4.508a2.167,2.167,0,0,1,4.332,0V16.034a2.14,2.14,0,0,1-2.118,2.091v7.763a2.091,2.091,0,1,1-.049,4.181ZM2.165,27.281a.7.7,0,1,0,0,1.394H47.114a.7.7,0,1,0,0-1.394ZM37.73,18.125v7.762h7.989V18.125ZM26.806,15.337v10.55h9.481V18.125h-.144a2.132,2.132,0,0,1-2.166-2.092,2.012,2.012,0,0,1,.124-.7Zm-2.887,0v10.55h1.444V15.337ZM12.994,18.125v7.762h9.481V15.337H21.56a.7.7,0,1,1,0-1.394H39.615V9.9a1.187,1.187,0,0,0-1.206-1.164H11.464A1.186,1.186,0,0,0,10.259,9.9v4.042H18.48a.7.7,0,1,1,0,1.394h-3.3a2.014,2.014,0,0,1,.124.7,2.132,2.132,0,0,1-2.165,2.092ZM2.165,3.811a.711.711,0,0,0-.722.7V16.034a.711.711,0,0,0,.722.7H13.138a.7.7,0,1,0,0-1.394H3.609a.711.711,0,0,1-.722-.7V4.508A.711.711,0,0,0,2.165,3.811Zm21.223,0a4.322,4.322,0,0,0-4.319,3.533H29.345a4.324,4.324,0,0,0-4.32-3.533Zm.819-2.416a.521.521,0,0,0-.53.511.53.53,0,0,0,1.059,0A.521.521,0,0,0,24.207,1.394Z" transform="translate(0 17.76)"/>
      <path id="Shape-4" data-name="Shape" d="M2.714,5.011A2.619,2.619,0,0,1,0,2.506,2.619,2.619,0,0,1,2.714,0,2.619,2.619,0,0,1,5.429,2.506,2.619,2.619,0,0,1,2.714,5.011Zm0-3.644A1.19,1.19,0,0,0,1.481,2.506,1.191,1.191,0,0,0,2.714,3.645,1.191,1.191,0,0,0,3.948,2.506,1.19,1.19,0,0,0,2.714,1.367Z" transform="translate(7.1 15.672)"/>
      <path id="Shape-5" data-name="Shape" d="M2.714,5.011A2.619,2.619,0,0,1,0,2.506,2.619,2.619,0,0,1,2.714,0,2.619,2.619,0,0,1,5.429,2.506,2.619,2.619,0,0,1,2.714,5.011Zm0-3.644A1.19,1.19,0,0,0,1.481,2.506,1.191,1.191,0,0,0,2.714,3.645,1.191,1.191,0,0,0,3.948,2.506,1.19,1.19,0,0,0,2.714,1.367Z" transform="translate(30.904 3.979)"/>
    </g>
  </g>
</svg>
