<svg xmlns="http://www.w3.org/2000/svg" width="78" height="62" viewBox="0 0 78 62">
  <g id="Icons_Circle_table" data-name="Icons/Circle/table" transform="translate(-20 -26.5)">
    <path id="ecran_1_forme_1" d="M53.757,13.481c3.151,1.6,6.267,3.522,11.3,6.694C70.08,23.332,76.985,27.758,77.9,32.31c.9,4.569-4.236,9.3-9.057,14.055C64.019,51.108,59.491,55.9,53.482,58.8a35.157,35.157,0,0,1-20.817,2.681A38.032,38.032,0,0,1,12.881,51.6C7.509,46.428,3.876,39.576,1.723,31.961c-2.135-7.614-2.772-15.99.947-22.145C6.372,3.662,14.448-.257,22.093.013,29.738.3,36.969,4.8,42.187,7.691S50.589,11.863,53.757,13.481Z" transform="translate(20 26.5)" fill="#fff7ea"/>
    <g id="table" transform="translate(32 31)">
      <path id="Shape" d="M9.6,28.8a.8.8,0,0,1-.565-.236l-8.8-8.8A.8.8,0,0,1,.751,18.4l.329-.019A77.309,77.309,0,0,0,45.894.845c.273-.223.539-.444.79-.656A.8.8,0,0,1,48,.8v12a.806.806,0,0,1-.8.8.8.8,0,0,1-.353-.082L38.32,9.257,37.6,20.85a.8.8,0,0,1-1.256.608l-9.482-6.565L23.97,25.019a.8.8,0,0,1-.13.261.8.8,0,0,1-1.12.16l-8.753-6.565-3.619,9.411A.8.8,0,0,1,9.6,28.8Zm2.794-10.292A80.963,80.963,0,0,1,2.61,19.879L9.3,26.564Zm12.849-3.766a79.239,79.239,0,0,1-9.958,3.119l7.466,5.6ZM36.724,9.18a79.8,79.8,0,0,1-8.836,4.476l8.2,5.68ZM46.4,2.494A80.463,80.463,0,0,1,38.988,7.8L46.4,11.506Z" transform="translate(0 0.272)"/>
      <path id="Shape-2" data-name="Shape" d="M40.576,22.4h-.026a.79.79,0,0,1-.661-.4l-5.02-8.648-7.224,7.993a.806.806,0,0,1-.3.209.786.786,0,0,1-.284.053.8.8,0,0,1-.742-.514l-3.579-9.359-8.689,7.285a.794.794,0,0,1-1.29-.459L10.612,7.782,2.867,13.448a.789.789,0,0,1-.362.146.793.793,0,0,1-.895-.686l-1.6-12A.8.8,0,0,1,.121.377a.791.791,0,0,1,1.1-.256c.271.171.556.347.847.524A71.694,71.694,0,0,0,39.719,11.333c2.36,0,4.747-.119,7.1-.352l.313-.031c.025,0,.051,0,.076,0a.791.791,0,0,1,.445.137.8.8,0,0,1,.214,1.111l-6.629,9.854A.793.793,0,0,1,40.576,22.4Zm-4.145-9.53L40.625,20.1,45.6,12.7c-1.97.162-3.965.243-5.928.243C38.6,12.943,37.507,12.918,36.431,12.87Zm-12.16-1.584L27.335,19.3l6-6.638A72.831,72.831,0,0,1,24.271,11.286ZM12.186,7.539h0l1.867,9.385,7.5-6.285a73.86,73.86,0,0,1-9.364-3.1ZM1.806,2.355l1.2,9.009L9.7,6.474A76.723,76.723,0,0,1,1.806,2.355Z" transform="translate(0 25.872)"/>
      <path id="Shape-3" data-name="Shape" d="M2.4,4.8A2.4,2.4,0,1,1,4.8,2.4,2.4,2.4,0,0,1,2.4,4.8Zm0-3.2a.8.8,0,1,0,.8.8A.8.8,0,0,0,2.4,1.6Z" transform="translate(38.4 25.872)"/>
      <path id="Shape-4" data-name="Shape" d="M2.4,4.8A2.4,2.4,0,1,1,4.8,2.4,2.4,2.4,0,0,1,2.4,4.8Zm0-3.2a.8.8,0,1,0,.8.8A.8.8,0,0,0,2.4,1.6Z" transform="translate(1.6 41.872)"/>
      <path id="Shape-5" data-name="Shape" d="M2.4,4.8A2.4,2.4,0,1,1,4.8,2.4,2.4,2.4,0,0,1,2.4,4.8Zm0-3.2a.8.8,0,1,0,.8.8A.8.8,0,0,0,2.4,1.6Z" transform="translate(8 5.072)"/>
      <path id="Rectangle" d="M.006,0,1.6,0l0,2.253L0,2.256Z" transform="translate(1.035 9.19) rotate(-45)"/>
      <rect id="Rectangle-2" data-name="Rectangle" width="1.6" height="1.6" transform="translate(32 3.472)"/>
      <path id="Rectangle-3" data-name="Rectangle" d="M0,.006,2.256,0l0,1.593L0,1.6Z" transform="translate(21.706 3.268) rotate(-45)"/>
      <path id="Rectangle-4" data-name="Rectangle" d="M0,.006,2.256,0l0,1.593L0,1.6Z" transform="translate(14.551 13.646) rotate(-45)"/>
      <path id="Rectangle-5" data-name="Rectangle" d="M.006,0,1.6,0l0,2.253L0,2.256Z" transform="translate(42.377 16.376) rotate(-45)"/>
      <rect id="Rectangle-6" data-name="Rectangle" width="1.6" height="1.6" transform="translate(28.8 24.272)"/>
      <path id="Rectangle-7" data-name="Rectangle" d="M0,.006,2.256,0l0,1.593L0,1.6Z" transform="translate(32.836 32.805) rotate(-45)"/>
      <path id="Rectangle-8" data-name="Rectangle" d="M.006,0,1.6,0l0,2.253L0,2.256Z" transform="translate(14.551 28.35) rotate(-45)"/>
      <rect id="Rectangle-9" data-name="Rectangle" width="1.6" height="1.6" transform="translate(20.8 45.072)"/>
      <path id="Rectangle-10" data-name="Rectangle" d="M.006,0,1.6,0l0,2.253L0,2.256Z" transform="translate(7.391 39.527) rotate(-45)"/>
      <path id="Rectangle-11" data-name="Rectangle" d="M0,.006,2.256,0l0,1.593L0,1.6Z" transform="translate(8.187 47.176) rotate(-45)"/>
      <path id="Rectangle-12" data-name="Rectangle" d="M0,.006,2.256,0l0,1.593L0,1.6Z" transform="translate(32.836 46.377) rotate(-45)"/>
    </g>
  </g>
</svg>
