<svg xmlns="http://www.w3.org/2000/svg" width="78" height="62" viewBox="0 0 78 62">
  <g id="Icons_Circle_animatrice" data-name="Icons/Circle/animatrice" transform="translate(-21 -25.5)">
    <path id="ecran_1_forme_1" d="M53.757,13.481c3.151,1.6,6.267,3.522,11.3,6.694C70.08,23.332,76.985,27.758,77.9,32.31c.9,4.569-4.236,9.3-9.057,14.055C64.019,51.108,59.491,55.9,53.482,58.8a35.157,35.157,0,0,1-20.817,2.681A38.032,38.032,0,0,1,12.881,51.6C7.509,46.428,3.876,39.576,1.723,31.961c-2.135-7.614-2.772-15.99.947-22.145C6.372,3.662,14.448-.257,22.093.013,29.738.3,36.969,4.8,42.187,7.691S50.589,11.863,53.757,13.481Z" transform="translate(21 25.5)" fill="#fff7ea"/>
    <g id="animatrice" transform="translate(32 33)">
      <path id="Path" d="M6.626.053a.647.647,0,0,0-.864.4A2.417,2.417,0,0,1,3.52,2.083a2.319,2.319,0,0,1-1.712-.768A2.615,2.615,0,0,1,1.278.45a.647.647,0,0,0-.863-.4A.74.74,0,0,0,.048.988,4.059,4.059,0,0,0,.871,2.332,3.587,3.587,0,0,0,3.52,3.52,3.743,3.743,0,0,0,6.991.989.74.74,0,0,0,6.626.053Z" transform="translate(31.68 19.665)"/>
      <path id="Path-2" data-name="Path" d="M.88,0A.8.8,0,0,0,0,.689v.382a.8.8,0,0,0,.88.689.8.8,0,0,0,.88-.689V.689A.8.8,0,0,0,.88,0Z" transform="translate(31.68 14.385)"/>
      <path id="Path-3" data-name="Path" d="M.88,0A.8.8,0,0,0,0,.689v.382a.8.8,0,0,0,.88.689.8.8,0,0,0,.88-.689V.689A.8.8,0,0,0,.88,0Z" transform="translate(38.72 14.385)"/>
      <path id="Path-4" data-name="Path" d="M6.626.053a.647.647,0,0,0-.864.4A2.417,2.417,0,0,1,3.52,2.083a2.319,2.319,0,0,1-1.712-.768A2.615,2.615,0,0,1,1.278.45a.647.647,0,0,0-.863-.4A.74.74,0,0,0,.048.987,4.06,4.06,0,0,0,.871,2.332,3.588,3.588,0,0,0,3.52,3.52,3.743,3.743,0,0,0,6.991.989.74.74,0,0,0,6.626.053Z" transform="translate(8.8 19.665)"/>
      <path id="Path-5" data-name="Path" d="M.88,0A.8.8,0,0,0,0,.689v.382a.8.8,0,0,0,.88.689.8.8,0,0,0,.88-.689V.689A.8.8,0,0,0,.88,0Z" transform="translate(7.04 14.385)"/>
      <path id="Path-6" data-name="Path" d="M.88,0A.8.8,0,0,0,0,.689v.382a.8.8,0,0,0,.88.689.8.8,0,0,0,.88-.689V.689A.8.8,0,0,0,.88,0Z" transform="translate(15.84 14.385)"/>
      <path id="Shape" d="M46.229,44h-16.9a.7.7,0,0,1-.7-.7V35.2H25.152a.7.7,0,0,1,0-1.408h4.175a.7.7,0,0,1,.7.7v8.092H42.189V37.878a.7.7,0,1,1,1.392,0v4.714h1.951V33.88a4.31,4.31,0,0,0-4.281-4.328H39.8V29.9c0,2.031-3.013,3.786-3.356,3.979a.689.689,0,0,1-.678,0c-.344-.194-3.357-1.953-3.357-3.979v-.351H21.1a5.766,5.766,0,0,1,1.957,4.328V43.3a.7.7,0,0,1-.7.7H2.112a.7.7,0,0,1-.7-.7V35.8A2.468,2.468,0,0,1,0,33.564V29.736a2.447,2.447,0,0,1,2.431-2.458h1.7a1.975,1.975,0,0,1,1.711,1.007,5.673,5.673,0,0,1,1.253-.14H8.539V26.8A8.722,8.722,0,0,1,3.618,19.98a2.581,2.581,0,0,1-2.559-2.591V16.5a2.584,2.584,0,0,1,.547-1.6,27.326,27.326,0,0,1-.715-3.138A46.569,46.569,0,0,1,.887,7.1,3.485,3.485,0,0,1,4.345,3.62h.768L7.4,1.309A3.472,3.472,0,0,1,9.853.287a3.381,3.381,0,0,1,.793.094L19.4,2.486a4.658,4.658,0,0,0,1.088.129A4.689,4.689,0,0,0,23.419,1.58a1.43,1.43,0,0,1,1.7-.086,1.467,1.467,0,0,1,.625,1.6L25.22,5.206a.692.692,0,0,1-.845.509.7.7,0,0,1-.5-.854L24.4,2.753a.059.059,0,0,0-.03-.077.077.077,0,0,0-.041-.014.063.063,0,0,0-.04.019,6.076,6.076,0,0,1-3.8,1.341,6.045,6.045,0,0,1-1.41-.167L10.324,1.75a2.021,2.021,0,0,0-.474-.056A2.079,2.079,0,0,0,8.383,2.3L5.893,4.821a.7.7,0,0,1-.492.206H4.345A2.08,2.08,0,0,0,2.279,7.116s0,.01,0,.015,0,.01,0,.015c-.038.939-.113,3.569,0,4.442a22.944,22.944,0,0,0,.545,2.448,2.543,2.543,0,0,1,.729-.129V11.64a.7.7,0,0,1,.649-.7c1.82-.123,2.188-.5,2.188-2.245a.7.7,0,0,1,.52-.68.688.688,0,0,1,.176-.023.7.7,0,0,1,.607.36,6.841,6.841,0,0,0,2.667,2.329A9.872,9.872,0,0,0,14.941,11.7a17.292,17.292,0,0,0,5.081-.843.69.69,0,0,1,.618.106.711.711,0,0,1,.283.566v2.375a2.537,2.537,0,0,1,.659.107l1.482-5.933a.7.7,0,0,1,.675-.531.69.69,0,0,1,.171.022.7.7,0,0,1,.5.854l-1.6,6.409a2.607,2.607,0,0,1,.6,1.661v.892A2.581,2.581,0,0,1,20.85,19.98a8.824,8.824,0,0,1-2.624,5.233,8.7,8.7,0,0,1-2.3,1.589v1.343H32.411v-.994H28.429a3.761,3.761,0,0,1-3.737-3.776V9.008A8.97,8.97,0,0,1,33.6,0h4.618a3.563,3.563,0,0,1,3.272,2.173l.114.266h.935A5.009,5.009,0,0,1,47.52,7.467V9.419a.7.7,0,1,1-1.392,0V7.467a3.606,3.606,0,0,0-3.583-3.622H41.152a.7.7,0,0,1-.639-.425l-.3-.689a2.172,2.172,0,0,0-2-1.324H33.605a7.569,7.569,0,0,0-7.52,7.6v5.326a2.525,2.525,0,0,1,1.334-.427V10.515c0-.127,0-.246.008-.362a.71.71,0,0,1,.266-.517.688.688,0,0,1,.561-.137,17.027,17.027,0,0,0,3.253.311A17.087,17.087,0,0,0,42.389,5.879a.683.683,0,0,1,.537-.153.7.7,0,0,1,.475.294,7.894,7.894,0,0,1,1.392,4.495v3.392a2.533,2.533,0,0,1,1.334.428V12.741a.7.7,0,1,1,1.392,0V23.375a3.761,3.761,0,0,1-3.736,3.776H39.8v.994h1.45a5.711,5.711,0,0,1,5.674,5.735V43.3A.7.7,0,0,1,46.229,44ZM19.013,37.175a.7.7,0,0,1,.7.7v4.714h1.951V33.88a4.31,4.31,0,0,0-4.281-4.328H15.929V29.9a3.733,3.733,0,0,1-1.082,2.641,3.652,3.652,0,0,1-2.613,1.094,3.72,3.72,0,0,1-3.7-3.735v-.351H7.09a4.256,4.256,0,0,0-.993.118v4.36a1.984,1.984,0,0,1-1.971,1.993H2.809v6.571h1.95V37.878a.7.7,0,1,1,1.392,0v4.714H18.318V37.878A.7.7,0,0,1,19.013,37.175ZM2.431,28.686a1.046,1.046,0,0,0-1.039,1.05v3.828a1.046,1.046,0,0,0,1.039,1.05h1.7a.583.583,0,0,0,.579-.585V29.271a.583.583,0,0,0-.579-.585ZM33.8,27.321V29.9c0,.749,1.194,1.845,2.3,2.546,1.108-.7,2.3-1.8,2.3-2.546V27.32a8.613,8.613,0,0,1-4.606,0Zm-23.872,0V29.9a2.318,2.318,0,0,0,2.3,2.327,2.276,2.276,0,0,0,1.628-.681,2.321,2.321,0,0,0,.674-1.646V27.32a8.609,8.609,0,0,1-4.605,0ZM27.493,15.313A1.179,1.179,0,0,0,26.322,16.5v.892a1.179,1.179,0,0,0,1.171,1.184h.634a.7.7,0,0,1,.695.667,7.4,7.4,0,0,0,4.525,6.442l.009,0,.032.014a7.264,7.264,0,0,0,5.428,0,.259.259,0,0,1,.036-.016,7.248,7.248,0,0,0,2.285-1.493,7.385,7.385,0,0,0,2.255-4.955.7.7,0,0,1,.695-.667h.634a1.178,1.178,0,0,0,1.169-1.184V16.5a1.178,1.178,0,0,0-1.169-1.184H44.1a.7.7,0,0,1-.7-.7V10.515a6.53,6.53,0,0,0-.755-3.052,18.549,18.549,0,0,1-11.14,3.755,18.569,18.569,0,0,1-2.7-.2V14.61a.7.7,0,0,1-.7.7Zm-23.872,0A1.178,1.178,0,0,0,2.452,16.5v.892a1.178,1.178,0,0,0,1.17,1.184h.633a.7.7,0,0,1,.7.667,7.394,7.394,0,0,0,4.526,6.443l.04.015a7.254,7.254,0,0,0,5.44,0l.013-.005a7.263,7.263,0,0,0,2.3-1.5,7.376,7.376,0,0,0,2.254-4.955.7.7,0,0,1,.7-.667h.633a1.179,1.179,0,0,0,1.171-1.184V16.5a1.179,1.179,0,0,0-1.171-1.184h-.621a.7.7,0,0,1-.7-.7V12.464a18.051,18.051,0,0,1-4.606.645,11.16,11.16,0,0,1-5.3-1.226,9.042,9.042,0,0,1-2.066-1.5A2.783,2.783,0,0,1,4.94,12.274V14.61a.7.7,0,0,1-.7.7Zm42.506,4.238h0a2.525,2.525,0,0,1-1.4.428A8.835,8.835,0,0,1,42.1,25.212c-.19.184-.394.363-.607.533h2.293a2.359,2.359,0,0,0,2.344-2.37V19.552Zm-20.043,0v3.823a2.36,2.36,0,0,0,2.345,2.37h2.291a8.74,8.74,0,0,1-3.23-5.764A2.532,2.532,0,0,1,26.085,19.552Z" transform="translate(0 0.305)"/>
    </g>
  </g>
</svg>
