<svg xmlns="http://www.w3.org/2000/svg" width="78" height="62" viewBox="0 0 78 62">
  <g id="Icons_Circle_boissons" data-name="Icons/Circle/boissons" transform="translate(-22 -26.5)">
    <path id="ecran_1_forme_1" d="M53.757,13.481c3.151,1.6,6.267,3.522,11.3,6.694C70.08,23.332,76.985,27.758,77.9,32.31c.9,4.569-4.236,9.3-9.057,14.055C64.019,51.108,59.491,55.9,53.482,58.8a35.157,35.157,0,0,1-20.817,2.681A38.032,38.032,0,0,1,12.881,51.6C7.509,46.428,3.876,39.576,1.723,31.961c-2.135-7.614-2.772-15.99.947-22.145C6.372,3.662,14.448-.257,22.093.013,29.738.3,36.969,4.8,42.187,7.691S50.589,11.863,53.757,13.481Z" transform="translate(22 26.5)" fill="#fff7ea"/>
    <g id="bottles" transform="translate(36 34)">
      <path id="Shape" d="M15.169,35.434A3.637,3.637,0,0,1,12.276,34,3.634,3.634,0,0,1,6.49,34,3.641,3.641,0,0,1,3.6,35.434,3.567,3.567,0,0,1,0,31.906V6.213A6.281,6.281,0,0,1,6.333,0h6.1a6.352,6.352,0,0,1,4.476,1.822,6.11,6.11,0,0,1,1.856,4.391V31.906A3.567,3.567,0,0,1,15.169,35.434Zm-2.893-4.218a.7.7,0,0,1,.7.69,2.19,2.19,0,0,0,4.378,0v-11.2H1.408v11.2A2.171,2.171,0,0,0,3.6,34.053a2.171,2.171,0,0,0,2.189-2.147.7.7,0,0,1,1.408,0,2.19,2.19,0,0,0,4.378,0A.7.7,0,0,1,12.276,31.216ZM1.408,9.663v9.664H17.358V9.663ZM6.333,1.381A4.885,4.885,0,0,0,1.408,6.213V8.284H17.358V6.213a4.885,4.885,0,0,0-4.926-4.832Z" transform="translate(0 7.766)"/>
      <ellipse id="Oval" cx="0.741" cy="0.728" rx="0.741" ry="0.728" transform="translate(8.889 31.551)"/>
      <ellipse id="Oval-2" data-name="Oval" cx="0.741" cy="0.728" rx="0.741" ry="0.728" transform="translate(11.852 12.135)"/>
      <ellipse id="Oval-3" data-name="Oval" cx="0.741" cy="0.728" rx="0.741" ry="0.728" transform="translate(5.926 34.463)"/>
      <path id="Shape-2" data-name="Shape" d="M10.648,6.31H.71a.677.677,0,1,1,0-1.352H.947V.676A.694.694,0,0,1,1.656,0H9.7a.694.694,0,0,1,.709.676V4.958h.237a.677.677,0,1,1,0,1.352ZM2.366,1.352V4.958H8.992V1.352Z" transform="translate(3.951)"/>
      <path id="Shape-3" data-name="Shape" d="M10.648,6.31H.71a.677.677,0,1,1,0-1.352H.947V.676A.694.694,0,0,1,1.656,0H9.7a.694.694,0,0,1,.709.676V4.958h.237a.677.677,0,1,1,0,1.352ZM2.366,1.352V4.958H8.992V1.352Z" transform="translate(24.691)"/>
      <path id="Shape-4" data-name="Shape" d="M15.169,35.434H3.6A3.567,3.567,0,0,1,0,31.906V22.319a3.4,3.4,0,0,1,.9-2.3,3.4,3.4,0,0,1-.9-2.3v-2.76a3.4,3.4,0,0,1,.9-2.3,3.4,3.4,0,0,1-.9-2.3V7.593A5.094,5.094,0,0,1,1.064,4.71L4.855.248A.7.7,0,0,1,5.395,0H13.37a.709.709,0,0,1,.541.248L17.7,4.71a5.087,5.087,0,0,1,1.064,2.884v2.76a3.4,3.4,0,0,1-.9,2.3,3.4,3.4,0,0,1,.9,2.3v2.761a3.4,3.4,0,0,1-.9,2.3,3.4,3.4,0,0,1,.9,2.3v9.588A3.567,3.567,0,0,1,15.169,35.434ZM5.725,1.381,2.146,5.594a3.706,3.706,0,0,0-.738,2v2.76a2.062,2.062,0,0,0,.95,1.726.684.684,0,0,1,0,1.15,2.061,2.061,0,0,0-.95,1.725v2.761a2.062,2.062,0,0,0,.95,1.726.684.684,0,0,1,0,1.15,2.061,2.061,0,0,0-.95,1.725v9.588A2.171,2.171,0,0,0,3.6,34.053H15.169a2.171,2.171,0,0,0,2.19-2.147V22.318a2.061,2.061,0,0,0-.95-1.725.684.684,0,0,1,0-1.15,2.062,2.062,0,0,0,.95-1.726V14.955a2.061,2.061,0,0,0-.95-1.725.684.684,0,0,1,0-1.15,2.062,2.062,0,0,0,.95-1.726V7.593a3.706,3.706,0,0,0-.738-2L13.041,1.381Z" transform="translate(21.235 7.766)"/>
      <path id="Path" d="M10.143,0H.721a.728.728,0,0,0,0,1.456h9.423a.728.728,0,0,0,0-1.456Z" transform="translate(25.185 19.901)"/>
      <path id="Path-2" data-name="Path" d="M10.143,0H.721a.728.728,0,0,0,0,1.456h9.423a.728.728,0,0,0,0-1.456Z" transform="translate(25.185 27.182)"/>
    </g>
  </g>
</svg>
