<?xml version="1.0" encoding="UTF-8"?>
<svg width="78px" height="63px" viewBox="0 0 78 63" version="1.1" xmlns="http://www.w3.org/2000/svg" xmlns:xlink="http://www.w3.org/1999/xlink">
    <!-- Generator: Sketch 64 (93537) - https://sketch.com -->
    <title>maman-enfant</title>
    <desc>Created with Sketch.</desc>
    <g id="Activités" stroke="none" stroke-width="1" fill="none" fill-rule="evenodd">
        <g id="1.1-Activités" transform="translate(-685.000000, -4340.000000)">
            <g id="Section" transform="translate(228.000000, 4225.000000)">
                <g id="Item" transform="translate(407.000000, 89.000000)">
                    <g id="maman-enfant" transform="translate(50.000000, 26.500000)">
                        <path d="M53.7573087,13.4808255 C56.9082711,15.0829943 60.0247968,17.0024242 65.052562,20.1750357 C70.0803273,23.3317841 76.9848952,27.7575771 77.8974691,32.3102745 C78.7928245,36.8788351 73.6617491,41.6060261 68.8406043,46.3649433 C64.0194596,51.1079975 59.4910272,55.8986408 53.4818147,58.8015803 C47.4726022,61.7045198 39.9653911,62.7197555 32.6648005,61.482437 C25.3642099,60.2451185 18.2530214,56.771109 12.8808887,51.5997523 C7.50875603,46.4283956 3.87567911,39.5755548 1.72338235,31.9612873 C-0.411696026,24.3470198 -1.04877586,15.9713255 2.67039293,9.81645923 C6.37234334,3.66159299 14.4477608,-0.256582177 22.0927188,0.0130897979 C29.7376769,0.29862483 36.969394,4.80373311 42.1865613,7.69080955 C47.4037287,10.577886 50.5891279,11.8627936 53.7573087,13.4808255 Z" id="ecran_1_forme_1" fill="#FFF7EA"></path>
                        <g id="embrace" transform="translate(13.000000, 1.500000)" fill="#000000" fill-rule="nonzero">
                            <path d="M6.52173495,28.7376845 C6.2065165,28.9825311 6.09088252,29.4238369 6.24423495,29.7921845 C6.3828233,30.1249689 6.71571553,30.3481544 7.07641165,30.3481544 C7.51793301,30.3481544 7.90018252,30.0145078 7.96699806,29.5799913 C8.08823592,28.7890893 7.14581359,28.2529485 6.52173495,28.7376845 Z" id="Path"></path>
                            <path d="M14.2578961,28.7862874 C13.6669019,29.332235 14.0690883,30.3480466 14.8700126,30.3480466 C15.3113184,30.3480466 15.6937835,30.0149388 15.7604913,29.5798835 C15.8869019,28.7548194 14.8663485,28.2243903 14.2578961,28.7862874 Z" id="Path"></path>
                            <path d="M13.6473961,32.5542524 C13.2957524,32.2023932 12.7254495,32.202501 12.3738058,32.5542524 C11.9996388,32.9284194 11.5020786,33.1345777 10.9727272,33.1345777 C10.4434835,33.1345777 9.94603107,32.9285272 9.57175631,32.5542524 C9.22000485,32.202501 8.64970194,32.2023932 8.29816602,32.5542524 C7.9463068,32.9060039 7.9463068,33.476199 8.29805825,33.8278427 C9.01244563,34.5423379 9.96241165,34.9357951 10.9727272,34.9357951 C11.9831505,34.9357951 12.9331165,34.5423379 13.6475039,33.8278427 C13.9992553,33.4763068 13.9992553,32.9060039 13.6473961,32.5542524 Z" id="Path"></path>
                            <path d="M43.1214524,12.2666854 C42.0991748,8.55077184 40.4554049,5.62953204 38.2356204,3.5840068 C37.869967,3.24701942 37.3002029,3.27018932 36.963,3.63595049 C36.6259049,4.00171165 36.6491825,4.5715835 37.0151592,4.90867864 C41.6186417,9.15081845 42.5849883,17.0605922 42.5849883,22.9490883 C42.5849883,28.728201 41.195333,32.839835 38.4544951,35.169865 C37.0723835,36.3449563 35.5909107,36.8389602 34.4713194,37.0409155 C36.0279058,34.6064592 36.8037204,31.7537592 36.6791417,28.8290709 C36.5951913,26.8388301 36.4336485,25.1639155 36.1853534,23.7080913 C35.7449097,21.1294427 35.0083223,19.1371544 33.9334544,17.617101 C32.6803398,15.8448728 30.9251388,14.6875631 28.7166699,14.1776097 C23.1965214,12.9035883 19.7417272,8.42069709 18.7286097,6.93663786 C19.4716631,3.9405 22.181033,1.80143301 25.3039049,1.80143301 L28.709234,1.80143301 C29.0086107,1.80143301 29.3066942,1.81813689 29.5956175,1.85100583 C29.6110282,1.85326893 29.6265466,1.85520874 29.6422806,1.85660971 L29.6618942,1.85854951 C29.674934,1.85973495 29.6881893,1.86081262 29.7012291,1.86145922 C31.6846806,2.02828252 33.4620816,2.553 34.9848291,3.42149417 C35.4169748,3.66774175 35.9670175,3.5174068 36.213265,3.08536893 C36.4598359,2.65333107 36.3091777,2.10318058 35.8771398,1.85671748 C34.123232,0.856424272 32.0935485,0.253899029 29.8442359,0.0657378641 C29.8324893,0.0644446602 29.8214971,0.0633669903 29.8112592,0.0625048544 C29.4509942,0.0210145631 29.0804913,0 28.709234,0 L25.3039049,0 C21.2103757,0 17.6775583,2.90475146 16.889566,6.90926505 C16.8874107,6.91853301 16.8854709,6.92780097 16.8835311,6.93696117 C16.8832078,6.9387932 16.8826689,6.94051748 16.8823456,6.94234951 C16.7783505,7.47514951 16.7255447,8.02551553 16.7255447,8.57814466 L16.7255447,17.4371301 C16.7255447,18.3227592 16.8324495,19.1838175 17.0326806,20.0088816 C15.3032359,18.833467 13.216867,18.1459136 10.9727272,18.1459136 C8.80682621,18.1459136 6.71700874,18.784433 4.9290466,19.9922854 C4.51683786,20.2707553 4.40842427,20.8306049 4.68678641,21.2428136 C4.96514854,21.6549146 5.52489029,21.7632204 5.9372068,21.4848583 C7.16068544,20.6582854 8.55432816,20.1527505 10.0138165,19.9983204 C9.8450534,21.3321524 9.30977476,22.4465709 8.41563204,23.3195913 C6.73144951,24.9643311 4.13480388,25.4625379 2.61033204,25.6126573 C2.9757699,24.6976078 3.48960291,23.8411835 4.14137767,23.083366 C4.46575631,22.7062893 4.42308058,22.1377107 4.04600388,21.8132243 C3.66892718,21.4888456 3.10034854,21.5315214 2.77586214,21.9085981 C1.09167961,23.8662932 0.164129126,26.3684272 0.164129126,28.9541883 C0.164129126,33.4558311 2.93083107,37.3229417 6.85290291,38.9460204 C6.01145825,39.3748252 5.23294951,39.935968 4.54636602,40.6229825 C2.8295301,42.3382019 1.88409029,44.620168 1.88409029,47.0486971 L1.88409029,48.469066 C1.65982718,48.5726301 1.15008932,48.9364515 1.15008932,48.9364515 C0.214025243,49.6772417 -0.185035922,50.8568592 0.108736893,52.0148155 C0.401647573,53.1693233 1.31173981,54.0135699 2.48305922,54.2177883 L2.53273981,54.2264097 C6.18291553,54.8600796 9.58921456,55.1763757 12.7448476,55.1763757 C20.1342146,55.1763757 26.1484748,53.441866 30.6967806,49.9866408 C36.8114796,45.3414524 38.2194553,39.1051922 38.5015893,37.3671262 C38.8766184,37.1283146 39.2516476,36.8557718 39.6207495,36.5418466 C42.7825252,33.8538146 44.3857751,29.2805068 44.3857751,22.9486573 C44.3857751,18.9115981 43.960634,15.3175689 43.1214524,12.2666854 Z M34.879433,28.9054777 C34.9050816,29.508434 34.8865456,30.1076184 34.8258728,30.6995825 C34.1258184,31.1935864 32.7756058,31.436601 30.9659825,31.3841184 C30.0110592,31.3567456 29.1214427,31.2524272 28.5305563,31.1670757 L28.5305563,28.3047845 C30.7951718,28.1184553 32.9287427,27.2320718 34.6530146,25.777433 C34.7560398,26.7207175 34.8309379,27.7563583 34.879433,28.9054777 Z M18.5268699,9.62660971 C19.7803078,11.1034485 21.7364942,13.0218087 24.3477961,14.4262282 L24.3477961,19.511968 C24.3477961,20.0093126 24.7509524,20.4125767 25.2484049,20.4125767 L27.4511621,20.4125767 C27.9487223,20.4125767 28.3517709,20.0093126 28.3517709,19.511968 C28.3517709,19.0146233 27.9486146,18.6113592 27.4511621,18.6113592 L26.1491214,18.6113592 L26.1491214,15.2590515 C26.834735,15.5278223 27.5545107,15.7581204 28.311466,15.9328107 C31.6082738,16.6941845 33.4769534,19.0636573 34.334132,23.5924573 C32.6100757,25.4707282 30.1899524,26.5404233 27.6298398,26.5404233 C22.6104845,26.5404233 18.5268699,22.4569165 18.5268699,17.4374534 L18.5268699,9.62660971 L18.5268699,9.62660971 Z M21.4853971,26.4409544 C23.0030796,27.4799359 24.7953524,28.1456126 26.7292311,28.3044612 L26.7292311,29.5784825 C23.159234,32.5061883 22.2826573,35.2922883 21.4348544,37.989265 C20.8917087,39.7169854 20.3727029,41.3657126 19.1037466,42.9973049 C18.2325583,41.2562214 16.8188709,39.8331583 15.0852233,38.9494689 C19.011067,37.3282223 21.7812175,33.4591718 21.7812175,28.9547272 C21.7812175,28.089466 21.6784078,27.2479136 21.4853971,26.4409544 Z M19.3354456,25.6153515 C17.8153922,25.4677107 15.2268291,24.9727369 13.5352107,23.3251951 C12.6379427,22.4513126 12.100832,21.3354932 11.9317456,19.9991825 C15.3010806,20.3572922 18.1196184,22.5814951 19.3354456,25.6153515 Z M1.9656699,28.9545117 C1.9656699,28.4513476 2.00953107,27.9523864 2.09197282,27.4617233 C3.66127573,27.3806825 7.28483301,26.9358204 9.66723786,24.6154893 C10.1980981,24.0984233 10.6327223,23.5217621 10.972835,22.8893854 C11.3129476,23.5217621 11.7474641,24.0984233 12.278432,24.6154893 C14.6611602,26.9361437 18.284933,27.3806825 19.8539126,27.4617233 C19.9352767,27.9475369 19.9798922,28.4458515 19.9798922,28.9545117 C19.9798922,33.9210612 15.9393845,37.9615689 10.972835,37.9615689 C6.00628544,37.9615689 1.9656699,33.9210612 1.9656699,28.9545117 Z M10.9730505,39.7628942 C12.6784631,39.7630019 14.247766,40.353565 15.490535,41.3387709 C14.2943214,42.5272252 12.6896709,43.1966738 10.9735893,43.1966738 C9.25502913,43.1966738 7.64843883,42.5262553 6.45179417,41.3358612 C7.73325146,40.3173553 9.30966699,39.7628942 10.9730505,39.7628942 Z M6.60159029,52.9981893 C5.38026699,52.8557214 4.12833786,52.6754272 2.84170777,52.4520262 L2.79353592,52.4436204 C2.32356408,52.3617175 1.97278252,52.0359379 1.85520874,51.5721087 C1.73666505,51.1048311 1.89109515,50.6476835 2.26827961,50.3490612 L2.36505437,50.2725466 C2.72036214,49.991167 3.19001068,49.9077553 3.62226408,50.0491456 C4.99112039,50.4976718 6.03732233,50.6829233 6.73716117,50.7565282 L6.60159029,52.9981893 Z M4.1830835,48.3378058 C4.0191699,48.2841379 3.85288544,48.245665 3.68573883,48.2196932 L3.68573883,47.0493437 C3.68573883,45.4254029 4.21455146,43.884335 5.18822621,42.619366 C6.71991845,44.1411437 8.77535825,44.9981068 10.9736971,44.9981068 C13.169665,44.9981068 15.223165,44.1421136 16.7544262,42.6220602 C17.5853097,43.7044718 18.118433,45.0254796 18.2335282,46.463199 C13.2232252,48.3568806 7.99340097,48.9582204 7.61988058,48.9991718 C7.4928233,49.0035903 6.2838932,49.0261136 4.1830835,48.3378058 Z M29.5783748,48.575001 C24.5047049,52.4139845 17.3940233,53.9550524 8.39504854,53.1807466 L8.54516796,50.7002738 C9.96025631,50.5101728 13.1580262,50.000866 16.6528019,48.9113417 C22.977,46.9394214 26.9959544,44.1242243 28.5978029,40.5439893 C28.8009437,40.089967 28.5975874,39.5572748 28.1436728,39.3540262 C27.6897583,39.1512087 27.1568505,39.354134 26.9537097,39.8082641 C25.7724757,42.4484476 23.0280816,44.3688553 19.9662058,45.7489194 C19.9269786,45.4761612 19.8747117,45.2078214 19.8117757,44.9433612 C21.8163495,42.7804777 22.4959282,40.6212583 23.1535223,38.5292854 C23.849266,36.315967 24.5131107,34.2059971 26.7323563,31.9972049 C26.7614534,32.3993913 27.055765,32.7369175 27.4564427,32.8156951 C27.7968786,32.8826184 29.4957175,33.1963282 31.3797,33.1963282 C32.3996068,33.1963282 33.4732893,33.1038641 34.4152806,32.8309981 C33.9311913,34.5221854 33.0856515,36.1038816 31.913901,37.470367 C31.6962117,37.7241583 31.6371553,38.0775262 31.760333,38.3883262 C31.8832951,38.6991262 32.1685544,38.9160612 32.5008,38.9520553 C32.5362553,38.955935 32.7285117,38.9749019 33.0481485,38.9749019 C33.7057427,38.9749019 34.9739447,38.8921369 36.4331097,38.3753942 C35.8017029,40.7359223 34.0759223,45.1716117 29.5783748,48.575001 Z" id="Shape"></path>
                            <path d="M22.6075748,15.1114107 L21.1104757,14.975301 C20.6166874,14.9306854 20.1769981,15.2953689 20.132167,15.790666 C20.0869049,16.2860709 20.4521272,16.7241437 20.9474243,16.7690825 L22.4445233,16.9051922 C22.4721117,16.9076709 22.4998078,16.9089641 22.5271806,16.9089641 C22.9876689,16.9089641 23.3804796,16.5573204 23.4230476,16.0898272 C23.4679864,15.5945301 23.1029796,15.1564573 22.6075748,15.1114107 Z" id="Path"></path>
                            <path d="M29.2410641,22.4176893 C28.8894204,22.0658301 28.3191175,22.0659379 27.9674738,22.4176893 C27.5933068,22.7918563 27.0957466,22.9980146 26.5663951,22.9980146 C26.0371515,22.9980146 25.539699,22.7919641 25.1654243,22.4176893 C24.8136728,22.0659379 24.2433699,22.0658301 23.891834,22.4176893 C23.5399748,22.7694408 23.5399748,23.3396359 23.8917262,23.6912796 C24.6060058,24.405667 25.5559718,24.799232 26.5663951,24.799232 C27.5768184,24.799232 28.5267845,24.4057748 29.2411718,23.6912796 C29.5929233,23.3395282 29.5929233,22.769333 29.2410641,22.4176893 Z" id="Path"></path>
                        </g>
                    </g>
                </g>
            </g>
        </g>
    </g>
</svg>