<?xml version="1.0" encoding="UTF-8"?>
<svg width="78px" height="63px" viewBox="0 0 78 63" version="1.1" xmlns="http://www.w3.org/2000/svg" xmlns:xlink="http://www.w3.org/1999/xlink">
    <!-- Generator: Sketch 64 (93537) - https://sketch.com -->
    <title>mini-club</title>
    <desc>Created with Sketch.</desc>
    <g id="Activités" stroke="none" stroke-width="1" fill="none" fill-rule="evenodd">
        <g id="1.1-Activités" transform="translate(-443.000000, -4340.000000)">
            <g id="Section" transform="translate(228.000000, 4225.000000)">
                <g id="Item" transform="translate(166.000000, 89.000000)">
                    <g id="icon" transform="translate(30.000000, 0.000000)">
                        <g id="mini-club" transform="translate(19.000000, 26.500000)">
                            <path d="M53.7573087,13.4808255 C56.9082711,15.0829943 60.0247968,17.0024242 65.052562,20.1750357 C70.0803273,23.3317841 76.9848952,27.7575771 77.8974691,32.3102745 C78.7928245,36.8788351 73.6617491,41.6060261 68.8406043,46.3649433 C64.0194596,51.1079975 59.4910272,55.8986408 53.4818147,58.8015803 C47.4726022,61.7045198 39.9653911,62.7197555 32.6648005,61.482437 C25.3642099,60.2451185 18.2530214,56.771109 12.8808887,51.5997523 C7.50875603,46.4283956 3.87567911,39.5755548 1.72338235,31.9612873 C-0.411696026,24.3470198 -1.04877586,15.9713255 2.67039293,9.81645923 C6.37234334,3.66159299 14.4477608,-0.256582177 22.0927188,0.0130897979 C29.7376769,0.29862483 36.969394,4.80373311 42.1865613,7.69080955 C47.4037287,10.577886 50.5891279,11.8627936 53.7573087,13.4808255 Z" id="ecran_1_forme_1" fill="#FFF7EA"></path>
                            <g id="baby" transform="translate(11.000000, 6.500000)" fill="#000000" fill-rule="nonzero">
                                <path d="M49.2419753,35.91893 L42.4205761,35.91893 L42.4205761,25.6868313 C42.4147024,20.5091534 38.2188301,16.3132811 33.0411523,16.3074074 L24.4676128,16.3074074 C24.9649627,15.0280977 24.7387739,13.5803838 23.8748971,12.5137502 L23.8748971,11.9374486 C23.874897,5.34457784 18.5303193,1.77881845e-07 11.9374486,1.77881845e-07 C5.34457784,1.77881845e-07 -1.94170119e-05,5.34457784 -1.94170119e-05,11.9374486 L-1.94170119e-05,16.200823 C-0.00867709373,21.0232384 2.89154083,25.3749539 7.34579424,27.2230317 C7.38384486,27.2389128 7.42264156,27.2528753 7.46090535,27.26833 L7.46090535,33.0740868 L3.24687942,38.6278782 C1.66224115,39.3274182 0.639752955,40.8962394 0.639506173,42.6284156 L0.639506173,43.5930041 C0.639506173,44.0639235 1.02126173,44.4457333 1.49218107,44.4457333 L7.46090535,44.4457333 C7.7166245,44.4457333 7.95883499,44.3308736 8.12076914,44.1329605 L15.7948432,34.7535366 C15.9195131,34.6012027 15.9876369,34.4104259 15.9876543,34.2135802 L15.9876543,33.7339506 C16.4460672,34.0399813 16.9235802,34.3163856 17.4172704,34.5614716 L14.3315465,38.6286243 C12.7503797,39.3319403 11.7295289,40.8981045 11.7242798,42.6286288 L11.7242798,43.5930041 C11.7242798,44.0639235 12.1060354,44.4457333 12.5769547,44.4457333 L18.545679,44.4457333 C18.8046658,44.4457333 19.0496448,44.3280974 19.2115115,44.1259259 L25.7771082,35.91893 L26.9832169,35.91893 L26.6825424,38.9282329 C26.5196956,40.5535632 27.1582697,42.1564228 28.3941614,43.2245002 C29.6300531,44.2925775 31.3085282,44.6921488 32.8931066,44.2955016 L34.9387802,43.7838967 C36.1881042,44.4738539 37.6627174,44.6313776 39.0295947,44.2208926 L42.7723045,43.098879 L42.9223753,43.3240918 C43.3409634,43.9520013 44.0190425,44.3591372 44.7700166,44.4334624 C45.5209907,44.5077877 46.2657227,44.24147 46.7992749,43.7077955 C46.9317947,43.5750668 47.0492192,43.4280806 47.1494045,43.2695206 L47.1857498,43.3239852 C47.8016309,44.2470679 48.9490366,44.6583758 50.0110947,44.3367801 C51.0731527,44.0151845 51.8,43.0364514 51.8,41.9267708 L51.8,38.4769547 C51.7983555,37.0648785 50.6540516,35.9205746 49.2419753,35.91893 Z M40.7152263,25.6868313 L40.7152263,26.9936621 C39.2129243,25.6460463 37.0584529,25.3082592 35.2158042,26.1314394 C33.3731556,26.9546197 32.1871602,28.7847186 32.1884774,30.8028807 L32.1884774,34.2135802 L30.4831276,34.2135802 L30.4831276,18.0127572 L33.0411523,18.0127572 C37.277454,18.017515 40.7104685,21.4505295 40.7152263,25.6868313 Z M1.70534167,16.200823 L1.70534167,11.9374486 C1.70746577,6.4124909 6.0952775,1.88701238 11.6175345,1.71427091 C17.1397914,1.54152944 21.8018704,5.78391873 22.1492963,11.2979424 C21.7446456,11.1567478 21.3191118,11.0846845 20.890535,11.0847737 L20.4641975,11.0847737 L20.4641975,12.7901235 L20.890535,12.7901235 C22.0678333,12.7901235 23.0222222,13.7445123 23.0222222,14.9218107 C23.0222222,16.0991091 22.0678333,17.0534979 20.890535,17.0534979 L20.4641975,17.0534979 L20.4641975,18.7588477 L20.890535,18.7588477 C21.2234541,18.7588671 21.5549546,18.7154768 21.8766535,18.6297741 C20.69547,23.4620506 16.2104878,26.7450173 11.2472082,26.4104325 C11.2335654,26.4088337 11.219816,26.4074481 11.2058535,26.4065955 C5.84934379,26.0294217 1.69864033,21.5705913 1.70534167,16.200823 L1.70534167,16.200823 Z M7.05684403,42.7403292 L2.34485597,42.7403292 L2.34485597,42.6284156 C2.34502734,41.5144321 3.03740941,40.5178473 4.0813284,40.1290123 C4.23334821,40.0726954 4.3661323,39.974152 4.46407284,39.844965 L8.99284239,33.8762407 C9.10533482,33.727989 9.16623675,33.5470051 9.16625514,33.3609053 L9.16625514,27.8146815 C9.78283864,27.961022 10.4101298,28.0578601 11.0421399,28.1042712 C11.0569551,28.1060831 11.0720901,28.1074687 11.0871185,28.1085346 C11.1328432,28.1117321 11.1784613,28.1130111 11.224186,28.1156757 L11.7842868,29.1424029 C12.4406281,30.3454456 13.2837941,31.4366651 14.2823045,32.3753198 L14.2823045,33.9091753 L7.05684403,42.7403292 Z M24.5144033,34.7671794 L18.1358621,42.7403292 L13.4296296,42.7403292 L13.4296296,42.6286288 C13.4328585,41.5152974 14.124565,40.5200888 15.1669547,40.1290123 C15.3186968,40.0725611 15.4512311,39.9740754 15.5490597,39.8450716 L20.0775095,33.8763473 C20.190062,33.72808 20.251003,33.5470539 20.2510288,33.3609053 L20.2510288,29.0975309 L18.545679,29.0975309 L18.545679,33.0740868 L18.47107,33.1729971 C16.2646259,32.1580982 14.4447403,30.4580579 13.2821169,28.3257535 L13.1459021,28.0760263 C13.3244309,28.057907 13.5018938,28.0372296 13.6766922,28.0111165 C18.861282,27.248198 22.9417512,23.1925881 23.7363374,18.0127572 L28.7777778,18.0127572 L28.7777778,34.2135802 L26.2197531,34.2135802 L26.2197531,29.0975309 L24.5144033,29.0975309 L24.5144033,34.7671794 Z M32.4781737,42.6414189 C31.4321997,42.9026528 30.3245285,42.6385578 29.508945,41.9334846 C28.6933615,41.2284114 28.2718921,40.1705621 28.3791523,39.0978086 L28.6967737,35.91893 L32.1884774,35.91893 L32.1884774,39.1317025 C32.1876439,40.3284212 32.5928663,41.490016 33.3378831,42.4265449 L32.4781737,42.6414189 Z M45.018037,42.7403292 C44.8397909,42.740158 44.6665577,42.6813149 44.5250844,42.5728852 L45.7852313,42.1948305 C45.6715889,42.5214519 45.3636506,42.7403446 45.0178239,42.7403292 L45.018037,42.7403292 Z M50.0946502,41.9267708 C50.0946502,42.2852762 49.8599701,42.6015232 49.5168474,42.7054121 C49.1737246,42.8093009 48.8030403,42.6763416 48.6041745,42.378049 L47.3933761,40.561958 C47.185397,40.2499948 46.798038,40.1104937 46.4389132,40.2182235 L38.5393066,42.5881267 C37.4467159,42.9159242 36.2634678,42.7078124 35.3482933,42.0268856 C34.4331189,41.3459588 33.8938272,40.2724065 33.8938272,39.1317025 L33.8938272,30.8028807 C33.8938272,28.9192033 35.4208494,27.3921811 37.3045267,27.3921811 C39.1882041,27.3921811 40.7152263,28.9192033 40.7152263,30.8028807 L40.7152263,36.7716049 C40.7152263,37.2425243 41.0969819,37.6242798 41.5679012,37.6242798 L49.2419753,37.6242798 C49.7126755,37.6248085 50.0941216,38.0062545 50.0946502,38.4769547 L50.0946502,41.9267708 Z" id="Shape"></path>
                                <circle id="Oval" cx="5.11604938" cy="16.200823" r="1.70534979"></circle>
                                <circle id="Oval" cx="15.3481481" cy="16.200823" r="1.70534979"></circle>
                                <path d="M10.2320988,22.1695473 C11.6441994,22.1679614 12.7885375,21.0236232 12.7901235,19.6115226 L11.0847737,19.6115226 C11.0847737,20.082442 10.7030181,20.4641975 10.2320988,20.4641975 C9.76117942,20.4641975 9.37942387,20.082442 9.37942387,19.6115226 L7.67407407,19.6115226 C7.67566001,21.0236232 8.81999818,22.1679614 10.2320988,22.1695473 Z" id="Path"></path>
                                <path d="M10.2420111,11.8828774 C10.5304633,11.9913836 10.8550184,11.9357938 11.0909178,11.7374765 C11.3268173,11.5391593 11.4373442,11.2289819 11.3800123,10.9261761 L11.2398539,10.1859477 C11.077722,9.40328129 11.2655261,8.58884046 11.7540169,7.95620288 C12.2211239,7.35588316 12.9272432,6.98966358 13.6870309,6.95367037 L13.5900391,5.25119835 C12.3414005,5.31950602 11.182743,5.92252681 10.4104144,6.90602716 C9.81490863,7.67456207 9.48903387,8.61780097 9.48313045,9.59003457 C9.22958087,9.38037405 9.0240626,9.11865995 8.88050247,8.82262716 C8.47622798,8.02377737 8.41376955,7.11813004 8.71753498,6.45922551 L7.16875761,5.74511029 C6.64446914,6.88268519 6.71556091,8.32082798 7.35879753,9.59280576 C8.05404733,10.9666782 9.16433663,11.4774305 10.2420111,11.8828774 Z" id="Path"></path>
                            </g>
                        </g>
                    </g>
                </g>
            </g>
        </g>
    </g>
</svg>