<svg xmlns="http://www.w3.org/2000/svg" width="38.564" height="37.632" viewBox="0 0 38.564 37.632">
  <g id="picto_téléphone" data-name="picto téléphone" transform="translate(-2.55 1.163) rotate(-16)">
    <path id="Shape" d="M14.507,30H2.159A2.183,2.183,0,0,1,0,27.8V2.2A2.183,2.183,0,0,1,2.159,0H14.507a2.184,2.184,0,0,1,2.16,2.2V27.8A2.184,2.184,0,0,1,14.507,30ZM.98,24v3.8A1.192,1.192,0,0,0,2.159,29H14.507a1.192,1.192,0,0,0,1.179-1.2V24Zm0-20V23H15.686V4ZM2.159,1A1.192,1.192,0,0,0,.98,2.2V3H15.686V2.2A1.192,1.192,0,0,0,14.507,1Z" transform="translate(7.667 8)"/>
    <path id="Shape-2" data-name="Shape" d="M1.667,3.334A1.667,1.667,0,1,1,3.334,1.667,1.669,1.669,0,0,1,1.667,3.334Zm0-2.5a.833.833,0,1,0,.833.833A.834.834,0,0,0,1.667.833Z" transform="translate(14.333 32.444)"/>
    <g id="Group_4" data-name="Group 4" transform="translate(28.47 35.772) rotate(45)">
      <path id="Path" d="M.745.154a.386.386,0,0,0-.617,0,.6.6,0,0,0,0,.741,5.767,5.767,0,0,1,0,7.1.6.6,0,0,0,0,.741.4.4,0,0,0,.308.154.4.4,0,0,0,.308-.154A6.969,6.969,0,0,0,.745.154Z" transform="translate(2.222 0)"/>
      <path id="Path-2" data-name="Path" d="M.9.154a.529.529,0,0,0-.746,0A.523.523,0,0,0,.155.9,3.415,3.415,0,0,1,1.167,3.334,3.414,3.414,0,0,1,.155,5.77a.525.525,0,0,0,.373.9A.527.527,0,0,0,.9,6.513,4.454,4.454,0,0,0,2.222,3.334,4.453,4.453,0,0,0,.9.154Z" transform="translate(0 1.111)"/>
    </g>
    <g id="Group_2" data-name="Group 2" transform="translate(6.914 0.772) rotate(45)">
      <path id="Path-3" data-name="Path" d="M2.094.894a.6.6,0,0,0,0-.741.386.386,0,0,0-.617,0,6.969,6.969,0,0,0,0,8.582.387.387,0,0,0,.617,0,.6.6,0,0,0,0-.741A5.765,5.765,0,0,1,2.094.894Z" transform="translate(0 0)"/>
      <path id="Path-4" data-name="Path" d="M2.067.154a.529.529,0,0,0-.746,0,4.486,4.486,0,0,0,0,6.359.526.526,0,1,0,.746-.743A3.439,3.439,0,0,1,2.067.9.524.524,0,0,0,2.067.154Z" transform="translate(2.222 1.111)"/>
    </g>
  </g>
</svg>
